<?xml version="1.0" encoding="utf-8"?>
<!-- Generator: Adobe Illustrator 18.1.1, SVG Export Plug-In . SVG Version: 6.00 Build 0)  -->
<svg version="1.1" id="图层_1" xmlns="http://www.w3.org/2000/svg" xmlns:xlink="http://www.w3.org/1999/xlink" x="0px" y="0px"
	 viewBox="0 0 566.9 322.1" enable-background="new 0 0 566.9 322.1" xml:space="preserve">
<g>
	<g>
		<defs>
			<rect id="SVGID_1_" x="6" y="0" width="559.6" height="322.1"/>
		</defs>
		<clipPath id="SVGID_2_">
			<use xlink:href="#SVGID_1_"  overflow="visible"/>
		</clipPath>
		<path clip-path="url(#SVGID_2_)" fill="#A69886" d="M554.9,12.1c-7.4-7.5-17.6-11.7-28.1-11.7c-10.6,0-20.7,4.2-28.1,11.7
			L284.4,226.3L70.2,12.1C55-1.8,31.8-1.8,16.6,12.1c-14.2,15-14.2,38.5,0,53.6l241.5,241.5c6.1,7.7,14.9,12.7,24.6,13.9
			c10.7,0.1,20.9-4.2,28.4-11.8L552.7,67.8c7.7-7.1,12.3-16.9,12.7-27.4C565.9,29.9,562,19.7,554.9,12.1L554.9,12.1z M554.9,12.1"/>
	</g>
</g>
</svg>
