<?xml version="1.0" encoding="utf-8"?>
<!-- Generator: Adobe Illustrator 19.0.0, SVG Export Plug-In . SVG Version: 6.00 Build 0)  -->
<svg version="1.1" id="图层_1" xmlns="http://www.w3.org/2000/svg" xmlns:xlink="http://www.w3.org/1999/xlink" x="0px" y="0px"
	 viewBox="60 62.4 716.5 716.5" style="enable-background:new 60 62.4 716.5 716.5;" xml:space="preserve">
<style type="text/css">
	.st0{fill:#7A9FBA;}
</style>
<g>
	<path class="st0" d="M699.9,120.8H141.7c-38.4,0-69.7,31.3-69.7,69.7v476.1c0,38.4,31.3,69.7,69.7,69.7h558.2
		c38.4,0,69.7-31.3,69.7-69.7V190.5C769.6,152.1,738.3,120.8,699.9,120.8z M112.9,190.5c0-15.9,12.9-28.8,28.8-28.8h558.2
		c15.9,0,28.8,12.9,28.8,28.8v318.3l-94.1-94.1c-13.2-13.2-30.7-20.5-49.2-20.5s-36,7.3-49.2,20.5l-48.5,48.5L387.5,363
		c-13.1-13.1-30.5-20.3-49.2-20.3c-18.7,0-36.2,7.2-49.2,20.3L112.9,539.2V190.5z M141.7,695.5c-15.9,0-28.8-12.9-28.8-28.8v-69.8
		l205.3-205.3c11.2-11.2,29.5-11.2,40.7,0l303.9,303.9H141.7z M715.7,690.8l-199-199l48.5-48.5c5.4-5.4,12.5-8.3,20.6-8.3
		c7.7,0,14.8,2.9,20.6,8.3l122.8,122.8l0,100.4C728.8,676.3,723.7,685.5,715.7,690.8z"/>
	<path class="st0" d="M585,325.9c33.9,0,61.5-27.6,61.5-61.5s-27.6-61.5-61.5-61.5c-33.9,0-61.5,27.6-61.5,61.5
		S551.1,325.9,585,325.9z M585,243.8c11.4,0,20.6,9.3,20.6,20.6c0,11.4-9.2,20.6-20.6,20.6c-11.4,0-20.6-9.2-20.6-20.6
		C564.4,253,573.6,243.8,585,243.8z"/>
</g>
</svg>
