<?xml version="1.0" encoding="utf-8"?>
<!-- Generator: Adobe Illustrator 19.0.0, SVG Export Plug-In . SVG Version: 6.00 Build 0)  -->
<svg version="1.1" id="图层_1" xmlns="http://www.w3.org/2000/svg" xmlns:xlink="http://www.w3.org/1999/xlink" x="0px" y="0px"
	 viewBox="60 62.4 716.5 716.5" style="enable-background:new 60 62.4 716.5 716.5;" xml:space="preserve">
<style type="text/css">
	.st0{fill:#7A9FBA;}
</style>
<g>
	<path class="st0" d="M700.3,446.9c-18.5,0-29.6,15-29.6,29.6v163.6c0,18-15,37.2-37.2,37.2H165.9c-18,0-37.2-15-37.2-37.2V206
		c0-22.7,16.4-40.6,37.2-40.6h233.8c19.6,0,29.6-7.7,29.6-22.9c0-18.5-15-29.6-29.6-29.6H165.9c-25,0-48.4,9.6-65.9,27.1
		S72.9,181,72.9,206v434.2c0,25,9.6,48.4,27.1,65.9c17.5,17.5,40.9,27.1,65.9,27.1h470.9c25,0,48.4-9.6,65.9-27.1
		c17.5-17.5,27.1-40.9,27.1-65.9V476.5C729.9,458.3,718.5,446.9,700.3,446.9z"/>
	<path class="st0" d="M743.4,137.9c-47.6-1.5-94.1,6.8-138.2,24.5c-42.5,17.1-80.9,42.1-114.2,74.4c-33.9,32.9-60.5,71.5-79.2,114.7
		c-10.2,23.6-17.8,48.1-22.6,73l-60.9-100.7c-3.9-6.6-10.1-11.3-17.6-13.2c-7.5-2-15.3-0.9-21.8,2.9c-13.5,7.9-18.2,26-10.3,39.5
		l83.6,142.6c11.6,19.9,31.9,30.8,53,30.8c10.7,0,21.6-2.8,31.7-8.7l142.6-83.6c6.6-3.8,11.3-10.1,13.2-17.6
		c2-7.5,0.9-15.3-2.9-21.8c-3.9-6.6-10.1-11.3-17.6-13.2c-7.5-2-15.3-0.9-21.9,3l-121,73.3c20.9-150.1,148.4-265.4,300.6-265.4
		c1.5,0,3,0,4.6,0c7.3,0.1,14.2-2.8,19.1-8.1c4.8-5.1,7.5-12.1,7.5-19.6C771.1,149.5,759.2,138.1,743.4,137.9z"/>
</g>
</svg>
