<?xml version="1.0" encoding="utf-8"?>
<!-- Generator: Adobe Illustrator 19.0.0, SVG Export Plug-In . SVG Version: 6.00 Build 0)  -->
<svg version="1.1" id="图层_1" xmlns="http://www.w3.org/2000/svg" xmlns:xlink="http://www.w3.org/1999/xlink" x="0px" y="0px"
	 viewBox="60 62.4 716.5 716.5" style="enable-background:new 60 62.4 716.5 716.5;" xml:space="preserve">
<style type="text/css">
	.st0{fill:#999999;}
</style>
<g>
	<g>
		<path class="st0" d="M423.1,579c-79,0-164.2-31.3-246.1-90.7c-61.3-44.4-99-88.3-100.7-90.3c-5.9-7-5.9-17.2,0-24
			c1.6-1.8,39.3-45.9,100.7-90.3c81.9-59.4,167-90.7,246.1-90.7c79.1,0,164.2,31.3,246.1,90.7c61.3,44.4,99,88.3,100.7,90.3
			c5.9,7,5.9,17.2,0,24c-1.6,1.8-39.3,45.9-100.7,90.3C587.3,547.7,502.3,579,423.1,579L423.1,579z M115.8,386
			c15,15.6,44.5,44.4,83.9,72.7c52.6,38,133.9,83.1,223.6,83.1c89.7,0,171-45.3,223.6-83.1c39.3-28.4,68.7-57,83.9-72.7
			c-15-15.6-44.5-44.4-83.9-72.7c-52.6-38-133.9-83.1-223.6-83.1c-89.7,0-171,45.3-223.6,83.1C160.4,341.7,130.8,370.3,115.8,386
			L115.8,386z M115.8,386"/>
	</g>
	<path class="st0" d="M422.5,500.2c-62.9,0-114.2-51.2-114.2-114.2s51.2-114.2,114.2-114.2c62.9,0,114.2,51.2,114.2,114.2
		S485.5,500.2,422.5,500.2L422.5,500.2z M422.5,309c-42.5,0-77,34.6-77,77c0,42.5,34.6,77,77,77c42.5,0,77.1-34.6,77.1-77
		C499.6,343.6,465,309,422.5,309L422.5,309z M422.5,309"/>
</g>
</svg>
