<?xml version="1.0" encoding="utf-8"?>
<!-- Generator: Adobe Illustrator 19.0.0, SVG Export Plug-In . SVG Version: 6.00 Build 0)  -->
<svg version="1.1" id="图层_1" xmlns="http://www.w3.org/2000/svg" xmlns:xlink="http://www.w3.org/1999/xlink" x="0px" y="0px"
	 viewBox="60 62.4 716.5 716.5" style="enable-background:new 60 62.4 716.5 716.5;" xml:space="preserve">
<style type="text/css">
	.st0{fill:#7A9FBA;}
</style>
<g>
	<path class="st0" d="M717.5,386.1H455.7V124.3c0-21.6-17.5-39-39-39c-21.6,0-39,17.5-39,39v261.8H115.9c-21.6,0-39,17.5-39,39
		c0,21.6,17.5,39,39,39h261.8v261.8c0,21.6,17.5,39,39,39c21.6,0,39-17.5,39-39V464.1h261.8c21.6,0,39-17.5,39-39
		C756.5,403.5,739,386.1,717.5,386.1L717.5,386.1z M717.5,386.1"/>
</g>
</svg>
