<?xml version="1.0" encoding="utf-8"?>
<!-- Generator: Adobe Illustrator 19.0.0, SVG Export Plug-In . SVG Version: 6.00 Build 0)  -->
<svg version="1.1" id="图层_1" xmlns="http://www.w3.org/2000/svg" xmlns:xlink="http://www.w3.org/1999/xlink" x="0px" y="0px"
	 viewBox="60 62.4 716.5 716.5" style="enable-background:new 60 62.4 716.5 716.5;" xml:space="preserve">
<style type="text/css">
	.st0{fill:#7A9FBA;}
</style>
<g>
	<rect x="224" y="156.3" class="st0" width="541.4" height="77.3"/>
	<rect x="224" y="369.1" class="st0" width="541.4" height="77.3"/>
	<rect x="224" y="581.8" class="st0" width="541.4" height="96.7"/>
	<path class="st0" d="M76.5,217.6c0,18.7,10,36,26.2,45.4c16.2,9.4,36.2,9.4,52.4,0c16.2-9.4,26.2-26.7,26.2-45.4
		c0-18.7-10-36-26.2-45.4c-16.2-9.4-36.2-9.4-52.4,0C86.5,181.6,76.5,198.9,76.5,217.6L76.5,217.6z M76.5,217.6"/>
	<g>
		<path class="st0" d="M76.5,427.2c0,18.7,10,36,26.2,45.4c16.2,9.4,36.2,9.4,52.4,0c16.2-9.4,26.2-26.7,26.2-45.4
			c0-18.7-10-36-26.2-45.4c-16.2-9.4-36.2-9.4-52.4,0C86.5,391.2,76.5,408.5,76.5,427.2L76.5,427.2z M76.5,427.2"/>
		<path class="st0" d="M76.5,636.8c0,18.7,10,36,26.2,45.4c16.2,9.4,36.2,9.4,52.4,0c16.2-9.4,26.2-26.7,26.2-45.4s-10-36-26.2-45.4
			c-16.2-9.4-36.2-9.4-52.4,0C86.5,600.8,76.5,618.1,76.5,636.8L76.5,636.8z M76.5,636.8"/>
	</g>
</g>
</svg>
