<?xml version="1.0" encoding="utf-8"?>
<!-- Generator: Adobe Illustrator 19.0.0, SVG Export Plug-In . SVG Version: 6.00 Build 0)  -->
<svg version="1.1" id="图层_1" xmlns="http://www.w3.org/2000/svg" xmlns:xlink="http://www.w3.org/1999/xlink" x="0px" y="0px"
	 viewBox="-14 138 566.9 566.9" style="enable-background:new -14 138 566.9 566.9;" xml:space="preserve">
<style type="text/css">
	.st0{fill:#999999;}
</style>
<g>
	<g>
		<path class="st0" d="M540.5,642.6L431,533.1c81.7-109.3,59.4-264.1-49.9-345.9C271.9,105.5,117,127.9,35.2,237.1
			C3.3,279.9-14,331.7-14,385.1c0,136.5,110.6,247.1,247.1,247.1c53.4,0,105.2-17.3,148-49.2l109.4,109.4
			c13.7,13.8,36.1,13.8,50,0.1C554.2,678.8,554.2,656.4,540.5,642.6L540.5,642.6z M233.1,561.6c-97.5,1.4-177.6-76.5-179-174
			c-1.4-97.5,76.5-177.6,174-179h5c97.5,0,176.5,79,176.5,176.5C409.5,482.6,330.6,561.6,233.1,561.6L233.1,561.6z"/>
	</g>
</g>
</svg>
