<?xml version="1.0" encoding="utf-8"?>
<!-- Generator: Adobe Illustrator 19.0.0, SVG Export Plug-In . SVG Version: 6.00 Build 0)  -->
<svg version="1.1" id="图层_1" xmlns="http://www.w3.org/2000/svg" xmlns:xlink="http://www.w3.org/1999/xlink" x="0px" y="0px"
	 viewBox="60 62.4 716.5 716.5" style="enable-background:new 60 62.4 716.5 716.5;" xml:space="preserve">
<style type="text/css">
	.st0{fill:#999999;}
</style>
<g>
	<path class="st0" d="M432.3,94.3C251.3,94.3,104,241.5,104,422.6c0,181.1,147.3,328.3,328.3,328.3c181.1,0,328.3-147.3,328.3-328.3
		C760.7,241.5,613.4,94.3,432.3,94.3L432.3,94.3z M432.3,703.9C277.2,703.9,151,577.7,151,422.6c0-155.1,126.1-281.3,281.3-281.3
		c155.2,0,281.3,126.1,281.3,281.3C713.6,577.8,587.4,703.9,432.3,703.9L432.3,703.9z M432.3,703.9"/>
	<path class="st0" d="M549.7,422.6H432.5v-164c0-13-10.5-23.6-23.5-23.6c-13,0-23.5,10.6-23.5,23.6v187.6c0,13,10.5,23.5,23.5,23.5
		h140.7c13,0,23.6-10.5,23.6-23.5C573.2,433.1,562.6,422.6,549.7,422.6L549.7,422.6z M549.7,422.6"/>
</g>
</svg>
