<?xml version="1.0" encoding="utf-8"?>
<!-- Generator: Adobe Illustrator 18.1.1, SVG Export Plug-In . SVG Version: 6.00 Build 0)  -->
<svg version="1.1" id="图层_1" xmlns="http://www.w3.org/2000/svg" xmlns:xlink="http://www.w3.org/1999/xlink" x="0px" y="0px"
	 viewBox="0 0 566.9 566.9" enable-background="new 0 0 566.9 566.9" xml:space="preserve">
<g>
	<path fill="#7A9FBA" d="M287.5,389.3c-56.9,0-103.3-46.4-103.3-103.3c0-56.9,46.4-103.3,103.3-103.3c42.1,0,78,25.3,94.8,63.2
		l-37.9,16.9c-8.4-23.2-31.6-35.8-54.8-35.8c-33.7,0-61.1,27.4-61.1,61.1c0,33.7,27.4,61.1,61.1,61.1c10.5,0,21.1-2.1,31.6-8.4
		l21.1,35.8C325.5,385.1,306.5,389.3,287.5,389.3L287.5,389.3z M287.5,389.3"/>
	<path fill="#7A9FBA" d="M355,562.1l-8.4-12.6c-12.6-19-33.7-29.5-56.9-29.5c-23.2,0-44.2,10.5-56.9,29.5l-8.4,12.6l-16.9-4.2
		c-42.1-12.6-82.2-35.8-113.8-65.3L83.1,482l6.3-14.8c10.5-21.1,8.4-44.3-2.1-65.3c-10.5-19-31.6-31.6-54.8-33.7H15.7l-4.2-14.8
		c-4.2-21.1-8.4-44.2-8.4-65.3c0-21.1,2.1-44.3,8.4-65.3l4.2-14.8l14.8-2.1c23.2-2.1,42.1-14.8,54.8-33.7
		c10.5-19,12.6-44.2,2.1-65.3L81,92.2l10.5-10.5c31.6-31.6,71.6-52.7,113.8-65.3l14.8-4.2l8.4,12.6c12.6,19,33.7,29.5,56.9,29.5
		c23.2,0,44.2-10.5,56.9-29.5l8.4-12.6l14.8,4.2c42.1,12.6,82.2,35.8,113.8,65.3l10.5,10.5l-6.3,14.8c-10.5,21.1-8.4,44.3,2.1,65.3
		c10.5,19,31.6,31.6,54.8,33.7l14.8,2.1l4.2,14.8c4.2,21.1,8.4,44.3,8.4,65.3c0,21.1-2.1,44.3-8.4,65.3v14.8l-14.8,2.1
		c-23.2,2.1-42.1,14.8-54.8,33.7c-10.5,19-12.6,44.2-2.1,65.3l6.3,14.8l-10.5,10.5c-31.6,31.6-71.6,52.7-113.8,65.3L355,562.1z
		 M133.7,471.5c21.1,19,46.4,33.7,73.8,42.1c21.1-23.2,50.6-35.8,82.2-35.8c31.6,0,61.1,12.6,82.2,35.8
		c27.4-10.5,52.7-23.2,73.8-42.1c-8.4-29.5-6.3-61.1,10.5-88.5c14.8-27.4,42.1-46.4,71.6-52.7c2.1-14.8,4.2-27.4,4.2-42.1
		s-2.1-29.5-4.2-42.1c-29.5-6.3-56.9-25.3-71.6-52.7s-19-59-10.5-88.5c-21.1-19-46.4-33.7-73.8-42.1c-21.1,23.2-50.6,35.8-82.2,35.8
		c-31.6,0-61.1-12.6-82.2-35.8c-27.4,10.5-52.7,23.2-73.8,42.1c8.4,29.5,6.3,61.1-10.5,88.5C108.4,220.7,81,239.7,51.5,246
		c-2.1,14.8-4.2,27.4-4.2,42.1s2.1,29.5,4.2,42.1c29.5,6.3,56.9,25.3,71.6,52.7C137.9,410.4,142.1,442,133.7,471.5L133.7,471.5z
		 M133.7,471.5"/>
</g>
</svg>
