<?xml version="1.0" encoding="utf-8"?>
<!-- Generator: Adobe Illustrator 19.0.0, SVG Export Plug-In . SVG Version: 6.00 Build 0)  -->
<svg version="1.1" id="图层_1" xmlns="http://www.w3.org/2000/svg" xmlns:xlink="http://www.w3.org/1999/xlink" x="0px" y="0px"
	 viewBox="60 62.4 716.5 716.5" style="enable-background:new 60 62.4 716.5 716.5;" xml:space="preserve">
<style type="text/css">
	.st0{fill:#7A9FBA;}
</style>
<g>
	<g>
		<path class="st0" d="M681,592.8H575.2V487c0-13.5-10.9-24.4-24.4-24.4c-13.5,0-24.4,10.9-24.4,24.4v105.8H426
			c-13.5,0-24.4,10.9-24.4,24.4s10.9,24.4,24.4,24.4h100.4v100.4c0,13.5,10.9,24.4,24.4,24.4c13.5,0,24.4-10.9,24.4-24.4V641.7H681
			c13.5,0,24.4-10.9,24.4-24.4S694.5,592.8,681,592.8L681,592.8z M691.2,276.5L502.7,86.3c-3-3-6.4-5.6-10-7.8c-1-0.6-2-1.1-3-1.5
			c-0.6-0.3-1.3-0.6-1.9-0.9c-6.2-2.8-12.9-4.2-19.7-4.3H233.2c-27,0-48.8,21.9-48.8,48.9v597c0,26.9,21.9,48.8,48.9,48.8h143.8
			c13.5,0,24.4-10.9,24.4-24.4c0-13.5-10.9-24.4-24.4-24.4H233.3v-597h211.7v162.8c0,27,21.9,48.8,48.9,48.8h162.8v105.8
			c0,13.5,10.9,24.4,24.4,24.4c13.5,0,24.4-10.9,24.4-24.4V311C705.4,298,700.3,285.7,691.2,276.5L691.2,276.5z M493.7,283.5V146.7
			l135.6,136.7L493.7,283.5L493.7,283.5z M493.7,283.5"/>
	</g>
</g>
</svg>
