<?xml version="1.0" encoding="utf-8"?>
<!-- Generator: Adobe Illustrator 19.0.0, SVG Export Plug-In . SVG Version: 6.00 Build 0)  -->
<svg version="1.1" id="图层_1" xmlns="http://www.w3.org/2000/svg" xmlns:xlink="http://www.w3.org/1999/xlink" x="0px" y="0px"
	 viewBox="60 62.4 716.5 716.5" style="enable-background:new 60 62.4 716.5 716.5;" xml:space="preserve">
<style type="text/css">
	.st0{fill:#999999;}
</style>
<g>
	<path class="st0" d="M393.3,499.2h49.1c13.8,0,24.6-10.8,24.6-24.6c0-13.8-10.8-24.6-24.6-24.6h-49.1c-13.8,0-24.6,10.8-24.6,24.6
		C368.8,488.4,379.6,499.2,393.3,499.2L393.3,499.2z M393.3,597.5h49.1c13.8,0,24.6-10.8,24.6-24.6c0-13.8-10.8-24.6-24.6-24.6
		h-49.1c-13.8,0-24.6,10.8-24.6,24.6C368.8,586.7,379.6,597.5,393.3,597.5L393.3,597.5z M663.5,155.3h-98.3v-24.6
		c0-13.8-10.8-24.6-24.6-24.6c-13.8,0-24.6,10.8-24.6,24.6v24.6H319.6v-24.6c0-13.8-10.8-24.6-24.6-24.6
		c-13.8,0-24.6,10.8-24.6,24.6v24.6h-98.3c-54,0-98.3,44.2-98.3,98.3v393c0,54,44.2,98.3,98.3,98.3h491.3c54,0,98.3-44.2,98.3-98.3
		v-393C761.8,199.5,717.6,155.3,663.5,155.3L663.5,155.3z M712.7,646.6c0,27-22.1,49.1-49.1,49.1H172.3c-27,0-49.1-22.1-49.1-49.1
		V351.8h589.5V646.6z M712.7,302.7H123.1v-49.1c0-27,22.1-49.1,49.1-49.1h98.3V229c0,13.8,10.8,24.6,24.6,24.6
		c13.8,0,24.6-10.8,24.6-24.6v-24.6h196.5V229c0,13.8,10.8,24.6,24.6,24.6c13.8,0,24.6-10.8,24.6-24.6v-24.6h98.3
		c27,0,49.1,22.1,49.1,49.1V302.7z M245.9,597.5h49.1c13.8,0,24.6-10.8,24.6-24.6c0-13.8-10.8-24.6-24.6-24.6h-49.1
		c-13.8,0-24.6,10.8-24.6,24.6C221.4,586.7,232.2,597.5,245.9,597.5L245.9,597.5z M540.7,499.2h49.1c13.8,0,24.6-10.8,24.6-24.6
		c0-13.8-10.8-24.6-24.6-24.6h-49.1c-13.8,0-24.6,10.8-24.6,24.6C516.2,488.4,527,499.2,540.7,499.2L540.7,499.2z M245.9,499.2h49.1
		c13.8,0,24.6-10.8,24.6-24.6c0-13.8-10.8-24.6-24.6-24.6h-49.1c-13.8,0-24.6,10.8-24.6,24.6C221.4,488.4,232.2,499.2,245.9,499.2
		L245.9,499.2z M540.7,597.5h49.1c13.8,0,24.6-10.8,24.6-24.6c0-13.8-10.8-24.6-24.6-24.6h-49.1c-13.8,0-24.6,10.8-24.6,24.6
		C516.2,586.7,527,597.5,540.7,597.5L540.7,597.5z M540.7,597.5"/>
</g>
</svg>
