<?xml version="1.0" encoding="utf-8"?>
<!-- Generator: Adobe Illustrator 19.0.0, SVG Export Plug-In . SVG Version: 6.00 Build 0)  -->
<svg version="1.1" id="图层_1" xmlns="http://www.w3.org/2000/svg" xmlns:xlink="http://www.w3.org/1999/xlink" x="0px" y="0px"
	 viewBox="60 62.4 716.5 716.5" style="enable-background:new 60 62.4 716.5 716.5;" xml:space="preserve">
<style type="text/css">
	.st0{fill:#999999;}
</style>
<g>
	<path class="st0" d="M349,664.6c3,3.4,5.9,6.8,8.9,10.1l0.3,0.3c9.4,10.7,18.2,20.8,26.3,30.2c5.8,6.8,14.3,10.7,23.3,10.7h0.1l0,0
		c8.9,0,17.4-3.8,23.2-10.5c6.1-7,13-14.8,22.2-25.2c5.1-5.8,10.4-11.7,15.7-17.7c84.9-95.5,190.6-214.3,190.6-328.2
		c0-137.9-112.2-250.1-250.1-250.1S159.4,196.4,159.4,334.3c0,51,20.8,107.5,63.7,172.8C260.1,563.4,307.3,617.2,349,664.6z
		 M197.7,330.1c0-116.8,95-211.8,211.8-211.8c56.5,0,109.6,22.1,149.7,62.1c40,40.1,62.1,93.2,62.1,149.7
		c0,111.8-87.9,207.5-158.6,284.4c-19.9,21.6-38.7,42.1-53,60.4c-12.8-15.6-29.2-33.3-46.6-52C293.3,547.8,197.7,444.9,197.7,330.1z
		"/>
	<path class="st0" d="M642.4,651.1c-27.3-9.8-64.5-17.5-110.4-22.7c-10.2-1-19.5,6.3-20.7,16.5c-0.6,5,0.8,9.8,3.9,13.8
		c3.1,3.9,7.6,6.4,12.5,7c55.4,6.3,87.8,15.4,105.3,21.9c18.3,6.8,25.4,12.6,27.2,14.7c-3.6,6.5-25.6,17.2-67.5,26.4
		c-35.1,7.7-95.3,16.9-183.3,16.9C249,745.4,166,715.3,158.8,702.7c1.6-2.2,8.4-8.1,27-15.1c17.4-6.6,50.1-15.8,106.4-22.2l0,0
		c5-0.6,9.4-3,12.5-6.9s4.5-8.8,3.9-13.8c-1.1-10.1-10.4-17.4-20.7-16.5c-46.2,5.3-83.6,12.9-111.1,22.8
		c-37,13.2-55.8,30.5-55.8,51.3c0,28.7,35.4,50.4,105.1,64.6c71,14.4,151.8,16,183.3,16c31.4,0,112.3-1.6,183.3-16
		c69.7-14.2,105.1-35.9,105.1-64.6C697.9,681.5,679.2,664.3,642.4,651.1z"/>
	<path class="st0" d="M520,320.2c0-61-49.6-110.5-110.5-110.5S299,259.3,299,320.2c0,61,49.6,110.5,110.5,110.5
		C470.5,430.7,520,381.1,520,320.2z M486.4,320.2c0,42.4-34.5,76.8-76.9,76.8s-76.8-34.5-76.8-76.8c0-42.4,34.5-76.9,76.8-76.9
		C451.9,243.3,486.4,277.8,486.4,320.2z"/>
</g>
</svg>
