<?xml version="1.0" encoding="utf-8"?>
<!-- Generator: Adobe Illustrator 19.0.0, SVG Export Plug-In . SVG Version: 6.00 Build 0)  -->
<svg version="1.1" id="图层_1" xmlns="http://www.w3.org/2000/svg" xmlns:xlink="http://www.w3.org/1999/xlink" x="0px" y="0px"
	 viewBox="60 62.4 716.5 716.5" style="enable-background:new 60 62.4 716.5 716.5;" xml:space="preserve">
<style type="text/css">
	.st0{fill:#7A9FBA;}
</style>
<g>
	<path class="st0" d="M717.4,460.5c-18.7,0-29.9,15.2-29.9,29.9v165.2c0,18.2-15.1,37.6-37.6,37.6H177.8
		c-18.2,0-37.6-15.1-37.6-37.6V217.2c0-23,16.5-41,37.6-41h236.1c19.8,0,29.9-7.8,29.9-23.1c0-18.7-15.2-29.9-29.9-29.9H177.8
		c-25.2,0-48.9,9.7-66.5,27.4S83.9,192,83.9,217.2v438.4c0,25.2,9.7,48.9,27.4,66.5c17.7,17.7,41.3,27.4,66.5,27.4h475.5
		c25.2,0,48.9-9.7,66.5-27.4c17.7-17.7,27.4-41.3,27.4-66.5V490.3C747.3,471.9,735.8,460.5,717.4,460.5z"/>
	<path class="st0" d="M582.9,243.8c-47,7.2-91.5,23.4-132.2,48.1c-40.1,24.3-74.3,55.4-101.8,92.6c-28.6,38.6-48.5,81.9-59.1,128.7
		c-3.9,15.6,4.2,30.2,19,33.8c2.5,0.6,5.1,0.9,7.6,0.9c4.7,0,9.3-1.1,13.4-3.3c6.5-3.5,11-9.4,12.8-16.6
		c37-151.2,183.6-248.5,337.1-230.4l-102.5,99.6c-5.4,5.4-8.4,12.7-8.4,20.6c0,7.8,3,15.1,8.4,20.6c5.4,5.4,12.7,8.4,20.6,8.4
		c7.8,0,15.1-3,20.6-8.4l118-118c24.8-24.8,24.8-63.6,0-88.4l-118-118c-11.2-11.2-30-11.2-41.2,0c-11.2,11.2-11.2,30,0,41.2
		l82.9,85.2C634.3,238.7,608.6,239.9,582.9,243.8z"/>
</g>
</svg>
