<?xml version="1.0" encoding="utf-8"?>
<!-- Generator: Adobe Illustrator 19.0.0, SVG Export Plug-In . SVG Version: 6.00 Build 0)  -->
<svg version="1.1" id="图层_1" xmlns="http://www.w3.org/2000/svg" xmlns:xlink="http://www.w3.org/1999/xlink" x="0px" y="0px"
	 viewBox="0 0 595.3 841.9" style="enable-background:new 0 0 595.3 841.9;" xml:space="preserve">
<style type="text/css">
	.st0{fill:#7494AD;}
</style>
<g>
	<path class="st0" d="M96.6,437.7c4.9,0,9.5-1.9,12.9-5.3c3.4-3.4,5.3-8.1,5.3-13l0,0c0-4.9-1.9-9.5-5.3-13c-3.5-3.5-8-5.3-13-5.3
		l0,0H34.1c-10.1,0-18.3,8.3-18.3,18.3c0,10.1,8.3,18.3,18.3,18.3H96.6C96.4,437.7,96.6,437.7,96.6,437.7z"/>
	<path class="st0" d="M299.3,235L299.3,235c4.9,0,9.6-1.9,13-5.3c3.5-3.5,5.4-8,5.3-13v-62.3c0-10.1-8.3-18.3-18.3-18.3
		c-10.1,0-18.3,8.3-18.3,18.3v62.3c0,4.9,1.9,9.5,5.3,13C289.8,233.1,294.3,235,299.3,235z"/>
	<path class="st0" d="M442.6,294.4L442.6,294.4c4.9,0,9.6-1.9,13-5.3l44.1-44.1c7.1-7.1,7.1-18.8,0-25.9c-3.5-3.5-8-5.3-13-5.3
		c-4.9,0-9.5,1.9-13,5.3l-44.1,44.1c-5.3,5.3-6.8,13.1-4,20C428.4,290,435.1,294.4,442.6,294.4z"/>
	<path class="st0" d="M155.9,544.4c-4.9,0-9.5,1.9-13,5.3l-44.1,44.1c-3.5,3.5-5.3,8-5.3,13c0,5,1.9,9.5,5.3,13
		c3.6,3.6,8.3,5.3,13,5.3s9.4-1.8,13-5.3l44.1-44.1c7.1-7.1,7.1-18.8,0-25.9C165.4,546.3,160.8,544.4,155.9,544.4z"/>
	<path class="st0" d="M455.6,549.8c-3.5-3.5-8-5.3-13-5.3c-4.9,0-9.5,1.9-13,5.3c-3.5,3.5-5.3,8-5.3,13c0,4.9,1.9,9.5,5.3,13
		l44.1,44.1c3.5,3.5,8.1,5.3,13,5.3c1.6,0,3.2-0.2,4.8-0.7c6.3-1.7,11.3-6.7,13-13c1.7-6.3-0.1-13.1-4.8-17.8L455.6,549.8z"/>
	<path class="st0" d="M299.3,603.8L299.3,603.8c-4.9,0-9.5,1.9-13,5.3c-3.5,3.5-5.3,8-5.3,13v62.3c0,6.6,3.5,12.7,9.2,15.8
		c2.8,1.6,6,2.5,9.2,2.5s6.3-0.8,9.2-2.5c5.7-3.3,9.2-9.4,9.2-15.8v-62.3c0-4.9-1.9-9.5-5.3-13C308.8,605.8,304.1,603.8,299.3,603.8
		z"/>
	<path class="st0" d="M564.4,401.1h-62.3c-6.6,0-12.7,3.5-15.8,9.2c-3.3,5.7-3.3,12.7,0,18.3c3.3,5.7,9.4,9.2,15.8,9.2h62.3
		c10.1,0,18.3-8.3,18.3-18.3C582.7,409.4,574.5,401.1,564.4,401.1z"/>
	<path class="st0" d="M299.3,245.1c-96.1,0-174.3,78.2-174.3,174.3s78.2,174.3,174.3,174.3s174.3-78.2,174.3-174.3
		S395.3,245.1,299.3,245.1z M299.3,557.1c-75.9,0-137.7-61.8-137.7-137.7s61.8-137.7,137.7-137.7s137.7,61.8,137.7,137.7
		C436.8,495.3,375.2,557.1,299.3,557.1z"/>
	<path class="st0" d="M142.9,289.1c3.5,3.5,8,5.3,13,5.3c4.9,0,9.5-1.9,13-5.3c3.5-3.5,5.3-8,5.3-13c0-4.9-1.9-9.5-5.3-13L124.8,219
		c-7.1-7.1-18.8-7.1-25.9,0c-7.1,7.1-7.1,18.8,0,25.9L142.9,289.1z"/>
</g>
</svg>
