<?xml version="1.0" encoding="utf-8"?>
<!-- Generator: Adobe Illustrator 19.0.0, SVG Export Plug-In . SVG Version: 6.00 Build 0)  -->
<svg version="1.1" id="图层_1" xmlns="http://www.w3.org/2000/svg" xmlns:xlink="http://www.w3.org/1999/xlink" x="0px" y="0px"
	 viewBox="0 0 595.3 841.9" style="enable-background:new 0 0 595.3 841.9;" xml:space="preserve">
<style type="text/css">
	.st0{clip-path:url(#SVGID_2_);fill:#779AB4;}
</style>
<g>
	<g>
		<defs>
			<rect id="SVGID_1_" x="105" y="204.9" width="400.3" height="400.7"/>
		</defs>
		<clipPath id="SVGID_2_">
			<use xlink:href="#SVGID_1_"  style="overflow:visible;"/>
		</clipPath>
		<path class="st0" d="M304.9,294c-28.9,0-52.5,23.6-52.5,52.5c0,28.9,23.5,52.5,52.5,52.5c28.9,0,52.5-23.6,52.5-52.5
			C357.4,317.6,333.9,294,304.9,294L304.9,294z M304.9,205.1c-110.5,0-200,89.5-200,200c0,110.5,89.5,200,200,200
			c110.5,0,200-89.5,200-200C504.9,294.7,415.4,205.1,304.9,205.1L304.9,205.1z M397.9,509.9c-5.5,0-9.9-4.4-9.9-9.9
			c0-45.3-36.5-80.8-83-80.8c-46.6,0-83,35.5-83,80.8c0,5.5-4.4,9.9-9.9,9.9c-5.5,0-9.9-4.4-9.9-9.9c0-27.4,10.7-52.8,30.2-71.7
			c9.6-9.3,20.8-16.4,33-21.3c-4.1-2.7-7.9-5.8-11.5-9.4c-13.6-13.6-21.2-31.8-21.2-51.1c0-19.3,7.5-37.5,21.2-51.1
			c13.6-13.6,31.8-21.2,51.1-21.2c19.3,0,37.5,7.5,51.1,21.2c13.6,13.7,21.1,31.8,21.1,51.1c0,19.3-7.5,37.5-21.2,51.1
			c-3.6,3.6-7.4,6.7-11.5,9.4c12.2,4.9,23.4,12.1,33,21.3c19.5,18.8,30.2,44.3,30.2,71.7C407.7,505.4,403.3,509.9,397.9,509.9
			L397.9,509.9z M397.9,509.9"/>
	</g>
</g>
</svg>
