<?xml version="1.0" encoding="utf-8"?>
<!-- Generator: Adobe Illustrator 19.0.0, SVG Export Plug-In . SVG Version: 6.00 Build 0)  -->
<svg version="1.1" id="Слой_1" xmlns="http://www.w3.org/2000/svg" xmlns:xlink="http://www.w3.org/1999/xlink" x="0px" y="0px"
	 viewBox="0 0 1595.1 488.1" style="enable-background:new 0 0 1595.1 488.1;" xml:space="preserve">
<style type="text/css">
	.st0{fill:#FFFFFF;}
</style>
<g>
	<g>
		<g>
			<g>
				<path class="st0" d="M595.1,163.5c0,26.7,40.4,26.7,40.4,0C635.5,136.8,595.1,136.8,595.1,163.5z M598.2,340.9h34.3v-139h-34.3
					V340.9z M764.4,310.6c-48.6,0-67.4-34-67.7-66.6c-0.3-32.9,20.2-68.2,67.7-68.2c17.1,0,34.5,5.9,47.5,18.5l24.7-23.9
					c-20.2-19.9-45.5-30.1-72.2-30.1c-71.1,0-104.5,52.2-104.2,103.6c0.3,51.1,31.2,101.4,104.2,101.4c28.4,0,54.5-9.3,74.7-29.2
					l-25.3-25.6C800.9,303.6,781.5,310.6,764.4,310.6z M960.2,221.6c-7.9-13.8-25.6-22.5-44.1-22.5c-40.4-0.3-72.2,24.7-72.2,72.5
					c0,48.6,30.3,73.9,71.3,73.6c15.4-0.3,37.1-8.1,44.9-24.4l1.7,20.2h32.3V202.5h-32.9L960.2,221.6z M919.2,313.7
					c-22.7,0-41-15.7-41-42.1c0-26.4,18.3-41.8,41-41.8C973.1,229.7,973.1,313.7,919.2,313.7z M1023.1,340.9h34V144.6h-34V340.9z
					 M1086.3,323.3c0,26.7,40.4,26.7,40.4,0C1126.7,296.6,1086.3,296.6,1086.3,323.3z"/>
				<path class="st0" d="M1164,340.9h34V144.6h-34V340.9z M1225,163.5c0,26.7,40.4,26.7,40.4,0C1265.4,136.8,1225,136.8,1225,163.5z
					 M1228.1,340.9h34.3v-139h-34.3V340.9z M1380.3,248.6l-21.1,57.8l-21.3-58.4l-19.1-45.8h-37.3l59.3,139.3h37.1l59-139.3h-37.4
					L1380.3,248.6z M1520.7,198.3c-44.9,0-73.6,30.3-73.6,72.5c0,44.4,28.4,73.9,76.1,73.9c21.1,0,44.9-7.3,59.5-22.5l-21.9-21.6
					c-7.9,8.1-24.4,12.9-37.1,12.9c-24.2,0-39-12.4-41.3-29.5h108.1C1596,226.9,1567,198.3,1520.7,198.3z M1483.1,255.6
					c5.1-18,20.2-27,38.8-27c19.7,0,33.7,9,35.9,27H1483.1z"/>
			</g>
		</g>
		<path class="st0" d="M633.5,416c-2-1.8-4.3-3.2-7.1-4.1c-2.7-0.9-5.7-1.4-9-1.4c-3.3,0-6.3,0.5-9,1.4c-2.7,1-5.1,2.3-7.1,4.2
			c-2,1.8-3.5,4-4.6,6.6c-1.1,2.6-1.6,5.5-1.6,8.8c0,3.4,0.5,6.3,1.6,8.9c1.1,2.6,2.6,4.8,4.6,6.6c2,1.8,4.3,3.2,7.1,4.1
			c2.7,0.9,5.7,1.4,9,1.4c3.3,0,6.3-0.5,9-1.4c2.7-0.9,5.1-2.3,7.1-4.1c2-1.8,3.5-4,4.6-6.6c1.1-2.6,1.6-5.6,1.6-8.9
			c0-3.3-0.5-6.3-1.6-8.9C637,420.1,635.4,417.8,633.5,416z M627.6,436.2c-0.5,1.4-1.3,2.6-2.2,3.6c-1,1-2.1,1.8-3.5,2.3
			c-1.4,0.6-2.9,0.8-4.5,0.8c-1.6,0-3.1-0.3-4.4-0.8c-1.3-0.6-2.5-1.3-3.5-2.3c-1-1-1.7-2.2-2.3-3.6c-0.5-1.4-0.8-2.9-0.8-4.6
			c0-1.6,0.3-3.2,0.8-4.6c0.5-1.4,1.3-2.6,2.2-3.6c1-1,2.1-1.8,3.5-2.4c1.4-0.6,2.8-0.8,4.4-0.8c3.4,0,6,1,8,3.1c2,2,3,4.8,3,8.3
			C628.3,433.3,628.1,434.8,627.6,436.2z M683.3,425.3c0,0.4,0,0.8,0,1.3c0,0.5,0,1,0.1,1.6c0,0.6,0,1.4,0.1,2.2
			c0,0.9,0.1,1.9,0.2,3.1l-17-22h-9.6v40.2h11.5v-12.8l-0.2-8.8l16.7,21.6h9.6v-40.2h-11.4V425.3z M725.7,411.5h-11.4v40.2h30.6V442
			h-19.2V411.5z M761.4,451.7h11.3v-40.2h-11.3V451.7z M818.6,425.3c0,0.4,0,0.8,0,1.3c0,0.5,0,1,0.1,1.6c0,0.6,0,1.4,0.1,2.2
			c0,0.9,0.1,1.9,0.2,3.1l-17-22h-9.6v40.2h11.5v-12.8l-0.2-8.8l16.8,21.6h9.6v-40.2h-11.4V425.3z M860.8,436h19v-9.2h-19V421h20.1
			v-9.5h-31.3v40.2h32.1v-9.6h-20.9V436z M919.4,420.9h11.7v30.8h11.3v-30.8h11.8v-9.4h-34.8V420.9z M970.6,451.7h11.3v-40.2h-11.3
			V451.7z M1023.9,425.1l-10.6-13.6h-11.9v40.2h11.2v-23.9l10,12.1h2l10.3-12.2v23.9h11.2v-40.2h-11.8L1023.9,425.1z M1077.1,436h19
			v-9.2h-19V421h20.1v-9.5h-31.3v40.2h32.1v-9.6h-20.9V436z M1168.1,429.9c-1.5-1-3.3-1.8-5.2-2.4c-2-0.5-3.9-0.9-5.9-1.1
			c-1-0.1-1.9-0.2-2.7-0.3c-0.8-0.1-1.5-0.3-2.1-0.5c-0.6-0.2-1-0.6-1.3-1c-0.3-0.4-0.5-1-0.5-1.7c0-0.5,0.2-1,0.5-1.4
			c0.3-0.4,0.7-0.7,1.2-0.9c0.5-0.2,1.1-0.4,1.8-0.5c0.6-0.1,1.3-0.2,2-0.2c1.8,0,3.4,0.2,5,0.6c1.6,0.4,3,1.1,4.4,2.1l5.6-7.2
			c-2.2-1.7-4.5-2.9-6.9-3.7c-2.4-0.7-5.1-1.1-8.1-1.1c-2.1,0-4.2,0.2-6.2,0.7c-2,0.5-3.8,1.2-5.4,2.2c-1.6,1-2.8,2.2-3.8,3.8
			c-1,1.5-1.4,3.4-1.4,5.5c0,2.5,0.4,4.5,1.3,6.1c0.9,1.6,2.1,2.9,3.6,3.8c1.5,0.9,3.2,1.6,5.2,2.1c2,0.5,4.1,0.8,6.3,1
			c4.5,0.4,6.7,1.6,6.7,3.7c0,1.1-0.6,2-1.8,2.6c-1.2,0.6-2.7,0.9-4.6,0.9c-0.8,0-1.7-0.1-2.7-0.2c-1-0.1-1.9-0.3-3-0.7
			c-1-0.3-2-0.8-3.1-1.4c-1-0.6-2-1.4-3-2.3l-6.2,7.2c1.4,1.5,2.8,2.6,4.1,3.6c1.4,0.9,2.8,1.7,4.2,2.2c1.4,0.5,2.9,0.9,4.5,1
			c1.6,0.2,3.3,0.3,5.1,0.3c2.3,0,4.4-0.3,6.6-0.8c2.1-0.5,4-1.3,5.6-2.4c1.6-1.1,2.9-2.4,3.9-4c1-1.6,1.5-3.6,1.5-5.9
			c0-2.3-0.5-4.2-1.4-5.9C1170.9,432.3,1169.6,431,1168.1,429.9z M1217,440.9c-0.8,0.5-1.6,0.9-2.5,1.3c-0.8,0.3-1.6,0.6-2.4,0.7
			c-0.8,0.2-1.6,0.2-2.2,0.2c-2,0-3.7-0.3-5-1c-1.4-0.7-2.5-1.5-3.3-2.6c-0.8-1.1-1.5-2.3-1.8-3.6c-0.4-1.3-0.6-2.6-0.6-3.9
			c0-1.3,0.2-2.6,0.6-4c0.4-1.4,1-2.6,1.9-3.7c0.9-1.1,2-2,3.3-2.8c1.4-0.7,3-1.1,5-1.1c1.3,0,2.7,0.2,4.2,0.7
			c1.5,0.5,2.9,1.4,4.4,2.8l7-6.9c-2.3-2.2-4.7-3.8-7.3-4.9c-2.6-1-5.3-1.5-8.2-1.5c-3.8,0-7.1,0.6-9.8,1.9c-2.8,1.2-5,2.9-6.9,4.9
			c-1.8,2-3.2,4.3-4,6.9c-0.9,2.5-1.3,5.1-1.3,7.7c0,2.7,0.4,5.3,1.2,7.9c0.8,2.5,2.1,4.7,3.9,6.7c1.8,1.9,4,3.4,6.8,4.6
			c2.8,1.1,6.1,1.7,10.1,1.7c3.1,0,5.9-0.5,8.6-1.4c2.7-1,5.2-2.6,7.5-4.8l-6.7-7.5C1218.6,439.7,1217.9,440.3,1217,440.9z
			 M1267.9,426.8h-14.5v-15.3h-11.4v40.2h11.4v-15.2h14.5v15.2h11.2v-40.2h-11.2V426.8z M1310,436h19v-9.2h-19V421h20.1v-9.5h-31.3
			v40.2h32.1v-9.6H1310V436z M1381.8,417.3c-1.7-1.8-3.9-3.2-6.5-4.2c-2.6-1-5.7-1.5-9.3-1.5h-17.2v40.2h17.2c3.6,0,6.7-0.5,9.3-1.6
			c2.6-1.1,4.8-2.6,6.5-4.4c1.7-1.9,3-4,3.8-6.5c0.8-2.5,1.3-5.1,1.3-7.8c0-2.8-0.4-5.3-1.3-7.7
			C1384.9,421.1,1383.6,419.1,1381.8,417.3z M1375.3,435.2c-0.3,1.3-0.9,2.5-1.7,3.5c-0.8,1-1.8,1.9-3,2.5c-1.2,0.6-2.8,0.9-4.6,0.9
			h-6V421h6c1.7,0,3.2,0.3,4.4,0.8c1.2,0.6,2.3,1.3,3,2.2c0.8,0.9,1.4,2,1.7,3.2c0.4,1.2,0.5,2.5,0.5,3.9
			C1375.8,432.6,1375.6,433.9,1375.3,435.2z M1430.5,434c0,3.1-0.7,5.3-2.1,6.7c-1.4,1.4-3.2,2.1-5.5,2.1c-2.3,0-4.1-0.7-5.5-2.1
			c-1.4-1.4-2.1-3.7-2.1-6.9v-22.3h-11.3v22.3c0,3.1,0.4,5.8,1.3,8.1c0.9,2.3,2.1,4.3,3.8,5.9c1.6,1.6,3.6,2.7,6,3.5
			c2.3,0.8,5,1.2,7.9,1.2s5.6-0.4,7.9-1.2c2.3-0.8,4.3-2,6-3.6c1.6-1.6,2.9-3.5,3.8-5.8c0.9-2.3,1.3-4.9,1.3-7.9v-22.4h-11.3V434z
			 M1472.2,411.5h-11.4v40.2h30.6V442h-19.2V411.5z M1519.1,436h19v-9.2h-19V421h20.1v-9.5h-31.3v40.2h32.1v-9.6h-20.9V436z
			 M1584.6,437.4c1.7-0.7,3.1-1.5,4.2-2.4c1.1-0.9,2-1.9,2.6-2.9c0.6-1,1.1-2.1,1.3-3.2c0.3-1.1,0.4-2.3,0.4-3.6
			c0-1.8-0.3-3.5-1-5.2c-0.7-1.7-1.7-3.1-3-4.4c-1.3-1.3-2.9-2.3-4.9-3.1c-1.9-0.8-4.2-1.1-6.8-1.1h-19.6v40.2h11.4v-13h4l9.4,13
			h12.5V451L1584.6,437.4z M1580.9,428.8c-0.7,0.9-1.8,1.4-3.3,1.4h-8.4v-9.6h8.3c1.5,0,2.6,0.5,3.3,1.6c0.7,1,1.1,2.2,1.1,3.4
			C1581.9,426.8,1581.6,427.9,1580.9,428.8z"/>
	</g>
	<g>
		<g>
			<g>
				<path class="st0" d="M292.1,430.6c1.2,2.3,3.5,3.8,5.8,4.2c1.1,0.2,2.3,0.1,3.3-0.4c3.2-1.4,4.3-5.3,2.4-8.7l-12.5-23.6
					c-1.8-3.5-5.9-5.2-9.1-3.8c-3.2,1.4-4.3,5.3-2.4,8.7L292.1,430.6z"/>
				<path class="st0" d="M203.6,412.5v25.1c0,3.7,3,7.1,6.7,7.6c3.7,0.5,6.7-2,6.7-5.7v-25.1c0-3.7-3-7.1-6.7-7.6
					C206.6,406.3,203.6,408.9,203.6,412.5z"/>
				<path class="st0" d="M28,235.8c0,3.7,3,7.1,6.6,7.6l25.1,3.7c3.7,0.6,6.7-2,6.7-5.7c0-3.7-3-7.1-6.7-7.6l-25.1-3.7
					C30.9,229.5,28,232.1,28,235.8z"/>
				<path class="st0" d="M58.2,334.8c1.1,0.2,2.3,0,3.3-0.4l21.7-9.3c3.2-1.4,4.3-5.3,2.4-8.7c-1.8-3.5-5.9-5.1-9.1-3.8l-21.7,9.3
					c-3.2,1.4-4.3,5.3-2.4,8.7C53.6,332.9,55.9,334.4,58.2,334.8z"/>
				<path class="st0" d="M76.5,173.5c1,0.8,2.2,1.2,3.3,1.4c2.3,0.3,4.5-0.5,5.8-2.5c1.8-2.9,0.7-7.1-2.4-9.5l-21.7-15.8
					c-3.2-2.3-7.2-1.8-9.1,1.1c-1.8,2.9-0.7,7.1,2.4,9.5L76.5,173.5z"/>
				<path class="st0" d="M119.1,407.2c1.1,0.8,2.2,1.2,3.3,1.4c2.3,0.3,4.5-0.5,5.8-2.5l12.5-19.8c1.8-2.9,0.7-7.1-2.4-9.5
					c-3.2-2.3-7.3-1.8-9.1,1.1l-12.5,19.9C114.9,400.7,115.9,404.9,119.1,407.2z"/>
				<path class="st0" d="M365.5,368.1l-21.7-15.8c-3.2-2.3-7.3-1.8-9.1,1.1c-1.8,2.9-0.7,7.1,2.4,9.5l21.7,15.8
					c1,0.8,2.2,1.2,3.3,1.4c2.3,0.3,4.5-0.5,5.8-2.5C369.8,374.7,368.7,370.5,365.5,368.1z"/>
			</g>
			<g>
				<path class="st0" d="M179.1,70.4c-0.6-2.5-2.6-4.3-4.6-4.2c-3.1,0.2-6.2,0.5-9.3,0.7c-2,0.1-3.1,2.4-2.5,5c1,4,2,8.1,3.1,12.1
					c0.7,2.6,2.9,4.5,4.8,4.1c3-0.5,6-0.9,9-1.4c1.9-0.3,3-2.5,2.3-5C180.9,78.1,179.9,74.2,179.1,70.4z"/>
				<path class="st0" d="M207,67.9c-0.5-2.2-2.5-3.9-4.5-3.8c-3.1,0.2-6.3,0.5-9.4,0.7c-2,0.2-3.3,2.2-2.7,4.6
					c0.8,3.7,1.7,7.4,2.6,11c0.6,2.4,2.7,4,4.6,3.8c3-0.4,6.1-0.9,9.1-1.3c2-0.3,3.1-2.3,2.6-4.5C208.5,74.8,207.7,71.4,207,67.9z"
					/>
				<path class="st0" d="M235.2,65.5c-0.4-2-2.3-3.5-4.3-3.4c-3.2,0.2-6.3,0.4-9.5,0.7c-2,0.1-3.4,2-2.9,4.2c0.7,3.3,1.4,6.7,2.1,10
					c0.5,2.1,2.5,3.7,4.5,3.4c3.1-0.4,6.1-0.8,9.2-1.3c2-0.3,3.2-2.1,2.8-4.1C236.3,71.8,235.7,68.6,235.2,65.5z"/>
				<path class="st0" d="M188.3,104.5c-0.8-2.4-2.9-4.1-4.8-3.7c-2.9,0.6-5.9,1.2-8.8,1.8c-1.9,0.4-2.8,2.8-1.9,5.3
					c1.3,4,2.6,7.9,4,11.8c0.9,2.5,3.1,4.1,4.9,3.6c2.8-0.8,5.6-1.6,8.5-2.4c1.8-0.5,2.6-2.9,1.8-5.3
					C190.7,112,189.5,108.2,188.3,104.5z"/>
				<path class="st0" d="M214.7,98.8c-0.6-2.2-2.7-3.7-4.6-3.3c-3,0.6-6,1.2-8.9,1.7c-1.9,0.4-2.9,2.6-2.2,4.9
					c1.1,3.6,2.3,7.2,3.5,10.8c0.8,2.3,2.9,3.8,4.7,3.2c2.9-0.8,5.7-1.6,8.6-2.4c1.8-0.5,2.8-2.7,2.1-4.8
					C216.8,105.6,215.7,102.2,214.7,98.8z"/>
				<path class="st0" d="M200.1,137.6c-0.9-2.3-3.1-3.7-4.9-3.1c-2.7,0.9-5.5,1.9-8.2,2.8c-1.8,0.6-2.4,3.1-1.4,5.6
					c1.6,3.8,3.2,7.6,4.8,11.4c1.1,2.4,3.3,3.8,5,3c2.6-1.1,5.2-2.3,7.9-3.4c1.7-0.7,2.3-3.2,1.3-5.5
					C203,144.8,201.6,141.2,200.1,137.6z"/>
				<path class="st0" d="M224.9,128.9c-0.8-2.1-2.9-3.4-4.7-2.8c-2.8,0.9-5.6,1.8-8.4,2.8c-1.8,0.6-2.5,2.9-1.7,5.2
					c1.4,3.5,2.8,7,4.2,10.4c0.9,2.2,3.1,3.4,4.8,2.7c2.7-1.1,5.3-2.2,8-3.3c1.7-0.7,2.4-3,1.6-5.1
					C227.4,135.5,226.1,132.2,224.9,128.9z"/>
				<path class="st0" d="M250.1,120.5c-0.7-1.9-2.7-3-4.6-2.4c-2.8,0.9-5.7,1.8-8.5,2.7c-1.8,0.6-2.7,2.7-1.9,4.7
					c1.2,3.2,2.4,6.3,3.6,9.4c0.8,2,2.9,3.1,4.7,2.4c2.7-1.1,5.5-2.2,8.2-3.3c1.8-0.7,2.6-2.8,1.9-4.7
					C252.3,126.4,251.1,123.4,250.1,120.5z"/>
				<path class="st0" d="M258.5,64.1c-0.3-1.8-2-3.1-3.8-3c-2.8,0.2-5.5,0.4-8.3,0.6c-1.8,0.1-2.9,1.7-2.6,3.6
					c0.6,2.9,1.2,5.8,1.8,8.7c0.4,1.9,2.2,3.2,3.9,3c2.7-0.4,5.4-0.7,8.1-1.1c1.7-0.2,2.8-1.8,2.4-3.6
					C259.5,69.6,259,66.8,258.5,64.1z"/>
				<path class="st0" d="M264.3,88.5c-0.5-1.7-2.2-2.9-3.9-2.6c-2.6,0.5-5.3,1-7.9,1.5c-1.7,0.3-2.6,2.1-2.1,3.9
					c0.8,2.9,1.7,5.7,2.6,8.5c0.6,1.8,2.4,3,4,2.5c2.5-0.7,5.1-1.3,7.6-2c1.6-0.4,2.5-2.2,2-3.9C265.8,93.9,265.1,91.2,264.3,88.5z"
					/>
				<path class="st0" d="M271.8,112.2c-0.6-1.7-2.4-2.6-4-2.1c-2.5,0.8-5,1.6-7.5,2.3c-1.6,0.5-2.4,2.4-1.7,4.2
					c1,2.8,2.1,5.5,3.2,8.2c0.7,1.8,2.5,2.7,4.1,2.1c2.4-1,4.8-1.9,7.2-2.8c1.6-0.6,2.3-2.4,1.6-4.1
					C273.8,117.4,272.8,114.8,271.8,112.2z"/>
			</g>
			<g>
				<path class="st0" d="M416.5,122.5c0.7-0.9,2.3-1.6,3.5-1.6c2,0.1,3.9,0.2,5.9,0.2c1.3,0,1.7,0.8,0.9,1.7
					c-1.2,1.4-2.4,2.9-3.6,4.4c-0.8,1-2.4,1.7-3.6,1.7c-1.9-0.1-3.8-0.2-5.6-0.3c-1.2-0.1-1.6-0.9-0.8-1.9
					C414.3,125.4,415.4,123.9,416.5,122.5z"/>
				<path class="st0" d="M398.9,121.2c0.6-0.9,2.1-1.6,3.4-1.4c2,0.2,4,0.3,5.9,0.5c1.3,0.1,1.8,0.9,1.1,1.8c-1,1.4-2.1,2.9-3.2,4.4
					c-0.7,0.9-2.3,1.7-3.5,1.5c-1.9-0.2-3.8-0.3-5.7-0.5c-1.2-0.1-1.7-1-1-1.9C397,124.1,398,122.6,398.9,121.2z"/>
				<path class="st0" d="M381.2,119.2c0.5-0.9,2-1.5,3.2-1.3c2,0.2,4,0.5,6,0.7c1.3,0.1,1.9,1,1.3,1.9c-0.9,1.4-1.8,2.8-2.7,4.3
					c-0.6,0.9-2.1,1.6-3.3,1.4c-1.9-0.2-3.8-0.5-5.7-0.8c-1.2-0.2-1.8-1.1-1.2-2C379.6,122,380.4,120.6,381.2,119.2z"/>
				<path class="st0" d="M403.6,136.6c0.8-1,2.3-1.7,3.5-1.6c1.7,0.1,3.5,0.2,5.2,0.3c1.1,0.1,1.4,0.9,0.5,1.9
					c-1.3,1.6-2.7,3.1-4,4.7c-0.9,1-2.5,1.8-3.5,1.8c-1.6-0.1-3.3-0.3-4.9-0.4c-1.1-0.1-1.3-1-0.4-2
					C401.1,139.7,402.3,138.1,403.6,136.6z"/>
				<path class="st0" d="M372.1,132.7c0.6-0.9,2-1.5,3.2-1.3c1.8,0.3,3.6,0.6,5.4,0.8c1.2,0.2,1.6,1,0.9,2c-1,1.4-2,2.9-3.1,4.4
					c-0.7,1-2.1,1.6-3.2,1.4c-1.7-0.3-3.4-0.6-5.1-0.9c-1.1-0.2-1.5-1.1-0.8-2.1C370.2,135.5,371.2,134.1,372.1,132.7z"/>
				<path class="st0" d="M389.6,150c0.9-1,2.3-1.8,3.3-1.6c1.5,0.2,3,0.3,4.6,0.5c1,0.1,1,1,0.1,2.1c-1.4,1.7-2.9,3.3-4.3,5
					c-0.9,1.1-2.5,1.9-3.4,1.8c-1.4-0.2-2.8-0.4-4.3-0.6c-0.9-0.2-0.9-1.1-0.1-2.2C387,153.2,388.3,151.6,389.6,150z"/>
				<path class="st0" d="M376,147.9c0.8-1,2.2-1.6,3.2-1.4c1.5,0.3,3.1,0.5,4.6,0.7c1,0.1,1.2,1.1,0.3,2.1c-1.3,1.6-2.5,3.1-3.8,4.7
					c-0.8,1-2.3,1.7-3.2,1.5c-1.5-0.3-2.9-0.6-4.4-0.9c-0.9-0.2-1.1-1.2-0.3-2.2C373.6,150.9,374.8,149.4,376,147.9z"/>
				<path class="st0" d="M362,144.9c0.7-0.9,2-1.4,3-1.2c1.6,0.3,3.2,0.7,4.7,1c1,0.2,1.3,1.1,0.5,2.1c-1.1,1.5-2.2,2.9-3.4,4.4
					c-0.7,1-2.1,1.6-3.1,1.3c-1.5-0.4-3-0.8-4.5-1.2c-1-0.3-1.2-1.2-0.5-2.2C359.9,147.8,361,146.4,362,144.9z"/>
				<path class="st0" d="M366.2,117.3c0.5-0.8,1.7-1.4,2.8-1.3c1.7,0.2,3.5,0.4,5.2,0.6c1.1,0.1,1.6,0.9,1.1,1.8
					c-0.8,1.3-1.6,2.7-2.4,4c-0.5,0.9-1.8,1.5-2.9,1.3c-1.7-0.2-3.3-0.4-5-0.7c-1.1-0.2-1.5-1-1-1.8
					C364.7,119.9,365.5,118.6,366.2,117.3z"/>
				<path class="st0" d="M358.1,130.1c0.5-0.8,1.8-1.4,2.8-1.2c1.6,0.2,3.1,0.5,4.7,0.7c1,0.1,1.4,0.9,0.8,1.8
					c-0.9,1.4-1.8,2.7-2.8,4.1c-0.6,0.9-1.9,1.5-2.8,1.3c-1.5-0.3-3-0.6-4.5-0.8c-1-0.2-1.3-1.1-0.7-1.9
					C356.4,132.7,357.3,131.4,358.1,130.1z"/>
				<path class="st0" d="M349.2,141.6c0.6-0.9,1.8-1.4,2.7-1.2c1.4,0.3,2.8,0.6,4.1,0.9c0.9,0.2,1.1,1,0.5,1.9c-1,1.4-2,2.8-3,4.2
					c-0.7,0.9-1.9,1.5-2.7,1.3c-1.3-0.4-2.6-0.7-3.9-1.1c-0.8-0.2-1-1.1-0.4-2C347.3,144.2,348.3,142.9,349.2,141.6z"/>
			</g>
			<g>
				<path class="st0" d="M455.3,243c1.8,1.1,4.7,0.9,6.4-0.7c2.7-2.4,5.4-4.9,8.1-7.3c1.8-1.6,1.7-3.7-0.1-4.6
					c-2.9-1.5-5.9-2.9-9-4.3c-2-0.9-5.1-0.5-6.8,0.9c-2.7,2.1-5.4,4.3-8.1,6.4c-1.7,1.4-1.5,3.3,0.5,4.4
					C449.4,239.5,452.4,241.2,455.3,243z"/>
				<path class="st0" d="M431.5,263.4c1.8,1.4,4.6,1.4,6.3-0.1c2.6-2.3,5.3-4.6,7.9-6.9c1.7-1.5,1.7-3.8-0.2-5
					c-2.9-2-5.8-3.9-8.9-5.7c-2-1.2-5-1-6.7,0.3c-2.6,2.1-5.2,4.1-7.8,6.2c-1.7,1.3-1.4,3.5,0.6,4.8
					C425.7,259,428.6,261.2,431.5,263.4z"/>
				<path class="st0" d="M426.5,228.3c2.3,1,5.4,0.8,7.2-0.5c2.6-1.9,5.3-3.9,8-5.8c1.7-1.3,1.3-3-1-3.8c-3.6-1.3-7.4-2.5-11.3-3.8
					c-2.5-0.8-6-0.6-7.6,0.5c-2.6,1.7-5.2,3.4-7.7,5.1c-1.6,1.1-1,2.8,1.5,3.7C419.3,225.2,422.9,226.7,426.5,228.3z"/>
				<path class="st0" d="M403.4,245.1c2.2,1.2,5.3,1.2,6.9,0c2.5-1.9,5.1-3.8,7.7-5.8c1.7-1.2,1.2-3.2-1-4.2
					c-3.5-1.7-7.1-3.4-10.9-5c-2.4-1.1-5.7-1-7.3,0.1c-2.5,1.7-5,3.4-7.4,5.2c-1.6,1.1-0.9,3,1.4,4.2
					C396.5,241.3,400,243.2,403.4,245.1z"/>
				<path class="st0" d="M381.3,262c2.1,1.4,5,1.5,6.6,0.3c2.4-1.9,4.9-3.9,7.4-5.8c1.6-1.2,1.2-3.3-1-4.6c-3.4-2-6.8-4-10.4-6
					c-2.3-1.3-5.5-1.4-7-0.3c-2.4,1.8-4.7,3.5-7.1,5.3c-1.5,1.1-0.9,3.2,1.4,4.5C374.7,257.7,378.1,259.8,381.3,262z"/>
				<path class="st0" d="M391.3,214.7c2.8,1,6.3,1,7.9,0c2.5-1.5,5-3.1,7.5-4.6c1.6-1,0.7-2.5-2.2-3.3c-4.4-1.3-9-2.7-13.7-4
					c-3.1-0.9-4.1,0.7-5.6,1.5c-2.4,1.3-4.7,2.6-7.1,4c-1.5,0.9-0.3,2.4,2.7,3.4C385.2,213.3,386.9,213.2,391.3,214.7z"/>
				<path class="st0" d="M369.8,228.5c2.6,1.2,5.9,1.3,7.5,0.3c2.4-1.6,4.8-3.2,7.2-4.8c1.6-1,0.7-2.7-2-3.8
					c-4.3-1.7-5.8-1.7-10.3-3.4c-2.9-1.1-6.5-1.2-7.9-0.3c-2.3,1.4-4.5,2.8-6.7,4.3c-1.4,0.9-0.3,2.7,2.5,3.8
					C364.3,226.5,365.7,226.6,369.8,228.5z"/>
				<path class="st0" d="M349.5,243.1c2.4,1.3,5.6,1.5,7,0.4c2.2-1.7,4.5-3.4,6.8-5c1.5-1.1,0.6-2.9-1.9-4.2c-4-1.9-5.3-2.2-9.5-4.1
					c-2.7-1.3-6.1-1.5-7.4-0.5c-2.1,1.5-4.2,3.1-6.3,4.6c-1.3,1-0.3,2.9,2.3,4.2C344.5,240.6,345.7,241,349.5,243.1z"/>
				<path class="st0" d="M387.8,298.3c1.7,1.6,4.4,2,6,0.9c2.5-1.8,5-3.5,7.5-5.3c1.6-1.1,1.6-3.3-0.2-4.8c-2.7-2.4-5.5-4.7-8.4-6.9
					c-1.9-1.5-4.7-1.8-6.3-0.7c-2.5,1.6-4.9,3.3-7.3,4.9c-1.6,1.1-1.3,3.1,0.5,4.7C382.4,293.5,385.2,295.9,387.8,298.3z"/>
				<path class="st0" d="M359.8,275.9c2,1.4,4.8,1.8,6.3,0.8c2.4-1.6,4.7-3.2,7.1-4.7c1.5-1,1.1-2.9-0.9-4.3
					c-3.2-2.1-6.5-4.2-9.9-6.3c-2.2-1.3-5.2-1.7-6.7-0.7c-2.3,1.5-4.5,2.9-6.8,4.4c-1.4,0.9-0.9,2.9,1.3,4.2
					C353.5,271.4,356.7,273.6,359.8,275.9z"/>
				<path class="st0" d="M329.7,256.5c2.3,1.3,5.3,1.7,6.7,0.8c2.1-1.4,4.3-2.8,6.5-4.2c1.4-0.9,0.6-2.7-1.8-4
					c-3.8-2-4.9-2.4-8.8-4.4c-2.6-1.3-5.7-1.7-7-0.9c-2,1.3-4,2.6-6,3.9c-1.2,0.9-0.3,2.7,2.2,4C325.1,253.9,326,254.4,329.7,256.5z
					"/>
			</g>
		</g>
		<g>
			<path class="st0" d="M426.4,359.6c-3.7,3.4-7.9,7.2-13.1,9.7c-2.9,1.4-6,2.1-9.2,2.1c-1.8,0-3.7-0.2-5.5-0.7l-0.5-0.1
				c-1.7-0.5-3.4-0.9-5.2-1.4c-33.8,61.5-101.5,99.2-179.7,91.7C101.4,450,10.8,350.5,10.8,238.6c0-66.5,32.1-122.4,81.6-154.6
				c-1.6-8.8-2.4-17.5-2.7-25.8C35.1,95.4,0,158.3,0,232.7c0,128,103.8,241.8,231.8,254.2c107.9,10.4,198.4-54.5,224.3-151.8
				c-9.9,8.1-19.5,15.9-27.8,22.7C427.7,358.5,427,359,426.4,359.6z"/>
			<path class="st0" d="M241.5,93.4c-0.5-2-2.5-3.3-4.5-2.9c-3,0.6-6,1.1-9,1.7c-1.9,0.4-3,2.4-2.4,4.5c0.9,3.3,1.9,6.5,2.9,9.8
				c0.7,2.1,2.7,3.4,4.6,2.9c2.9-0.8,5.8-1.5,8.7-2.3c1.9-0.5,2.9-2.5,2.3-4.4C243.2,99.5,242.3,96.4,241.5,93.4z"/>
			<path class="st0" d="M387.9,135.1c0.7-0.9,2.2-1.6,3.3-1.5c1.8,0.2,3.5,0.4,5.3,0.5c1.1,0.1,1.5,1,0.7,1.9
				c-1.2,1.5-2.3,3-3.6,4.5c-0.8,1-2.3,1.7-3.4,1.6c-1.7-0.2-3.3-0.4-5-0.7c-1.1-0.2-1.4-1.1-0.6-2
				C385.8,138,386.9,136.5,387.9,135.1z"/>
			<path class="st0" d="M408.4,282.8c1.8,1.6,4.5,1.8,6.2,0.4c2.5-2.2,5.1-4.4,7.7-6.5c1.7-1.4,1.6-3.8-0.2-5.3
				c-2.8-2.3-5.7-4.6-8.7-6.8c-1.9-1.4-4.9-1.5-6.5-0.2c-2.5,2-5,4-7.5,6.1c-1.6,1.3-1.3,3.6,0.6,5.1
				C402.8,277.9,405.6,280.3,408.4,282.8z"/>
			<path class="st0" d="M527.4,232.6c-7.9-7.5-55.9-54.4-136-54.8c32.9-19,68.6-58.7,88.3-99.8c0.1-0.1,0.2-0.2,0.3-0.2
				c-0.1,0-0.1,0-0.2,0.1c0-0.1,0.1-0.1,0.1-0.2l-0.5,0.3c-39.6,12.4-92.4,1.5-132-11.2c-12.4,35.7-26.2,58.7-40.7,75.9
				c2.6-56.1-23.7-93.8-15.3-140.4c-13.1,4.5-30,9-49,12.2c1,2.3,1.8,4.7,2.2,7.2c2.5,14.1-15.3,17-15.1,1.7c0-2.8-0.3-5-0.8-6.8
				c-14.2,1.8-29.4,2.8-44.7,2.5c0.7,2.1,1.2,4.3,1.4,6.4c1.6,14.2-16.4,16-15.2,0.7c0.3-3.2,0-5.7-0.6-7.7
				c-18.4-1.3-36.8-4.5-54.2-10.4c0,0-12.7,47.7,2,90.4c5.2,15,12.3,26.6,19.1,38.1c6.9,11.5,13.8,22.6,20.2,34.7
				c8.7,16.2,23.7,39.1,27,87.1c-3.7,4.5-6,10.3-6,16.9c0,15.9,12.9,30.1,28.8,31.6c13.7,1.3,25.1-7.1,28.1-19.6
				c7.2-3.7,14.7-5.5,22.4-6.3c2.5-0.1,5.1-0.3,7.6-0.3c2.6,0.1,5.1,0.1,7.7,0.3l7.6,0.8l7.8,1.3c10,1.9,20,5.6,29.4,11.6
				c9.5,5.9,18.7,14,28,22.2c9.3,8.2,19,16.3,29.1,22.5c9.6,5.9,19.7,8.7,29.7,11.4c3.2-1.6,7-5.4,10.6-8.6c0,0,98.3-80.5,108.9-88
				c5.7-4,8.7-7.5,8.3-12.6C532,239,530.5,235.5,527.4,232.6z M149.2,91.6c-4-22.3-4.5-34.7-1.5-46.8c22,5.6,91.8,2.4,119.4-11.4
				c-0.3,38.5,28.9,68.7,24.8,125c-27.3,26-56.2,40.6-82.2,86.8C201.7,162.4,160.1,152.2,149.2,91.6z M403.2,315.5
				c-48.3-13.4-74.7-71-171.9-49.9c-1.8-3.3-4.3-6.2-7.1-8.7c30-56.1,79.4-74.1,114-112.1c19.1-29.1,20.2-29.2,28.1-44.8
				c25.2,6.3,67,9,85.9,2.7c-17.3,33.7-66.8,68.3-77.7,75.7c-13.8,1-28.5,3.4-44.1,7.6c81-5.4,134.8,23.8,164,50.8
				C479.3,251.7,424.8,297.4,403.2,315.5z"/>
			<g>
				<path class="st0" d="M215.7,10.2c19.7-20.3,32.2-6.2,34.7,7.8c2.5,14.1-15.3,17-15.1,1.7C235.5,4.4,225.5,4.3,215.7,10.2z"/>
				<path class="st0" d="M158.7,13.6c21-19,32.5-4.1,34.1,10.1c1.6,14.2-16.4,16-15.2,0.7C178.9,9.1,169,8.4,158.7,13.6z"/>
			</g>
		</g>
	</g>
</g>
</svg>
