<?xml version="1.0" encoding="utf-8"?>
<!-- Generator: Adobe Illustrator 19.0.0, SVG Export Plug-In . SVG Version: 6.00 Build 0)  -->
<svg version="1.1" id="图层_1" xmlns="http://www.w3.org/2000/svg" xmlns:xlink="http://www.w3.org/1999/xlink" x="0px" y="0px"
	 viewBox="60 62.4 716.5 716.5" style="enable-background:new 60 62.4 716.5 716.5;" xml:space="preserve">
<style type="text/css">
	.st0{fill:#52A64F;}
</style>
<g>
	<path class="st0" d="M532.9,326.1h21.5c-21.5-98.8-124.5-171.8-244.8-171.8C176.4,158.6,69,248.8,69,364.8
		c0,68.7,34.4,120.3,98.8,163.2l-25.8,73l85.9-43c30,4.3,55.8,12.9,85.9,12.9h21.5c-4.3-17.2-8.6-34.3-8.6-51.5
		C326.7,412,416.9,326.1,532.9,326.1L532.9,326.1z M404,261.7c17.2,0,30,12.9,30,30s-12.9,30-30,30c-17.1,0-38.6-12.9-38.6-30
		S386.8,261.7,404,261.7L404,261.7z M232.2,321.8c-17.2,0-34.4-12.9-34.4-30c0-17.1,17.2-30,38.6-30c17.2,0,30,12.9,30,30
		C262.3,309,249.4,321.8,232.2,321.8L232.2,321.8z M232.2,321.8"/>
	<path class="st0" d="M756.2,515.1c0-98.8-98.8-176.1-206.1-176.1c-116,0-206.1,77.3-206.1,176.1c0,98.7,90.2,176.1,206.1,176.1
		c25.8,0,47.2-4.3,73-12.9l68.7,34.4l-21.5-55.8C721.8,618.2,756.2,571,756.2,515.1L756.2,515.1z M481.3,485.1
		c-12.9,0-25.8-12.9-25.8-25.8c0-12.9,12.9-25.8,25.8-25.8c17.2,0,30,12.9,30,25.8C511.3,476.5,502.7,485.1,481.3,485.1L481.3,485.1
		z M614.4,485.1c-12.9,0-25.8-12.9-25.8-25.8c0-12.9,12.9-25.8,25.8-25.8c17.2,0,30,12.9,30,25.8
		C648.8,476.5,635.9,485.1,614.4,485.1L614.4,485.1z M614.4,485.1"/>
</g>
</svg>
