<?xml version="1.0" encoding="utf-8"?>
<!-- Generator: Adobe Illustrator 19.0.0, SVG Export Plug-In . SVG Version: 6.00 Build 0)  -->
<svg version="1.1" id="图层_1" xmlns="http://www.w3.org/2000/svg" xmlns:xlink="http://www.w3.org/1999/xlink" x="0px" y="0px"
	 viewBox="0 0 595.3 841.9" style="enable-background:new 0 0 595.3 841.9;" xml:space="preserve">
<style type="text/css">
	.st0{fill:#7494AD;}
</style>
<g>
	<g>
		<path class="st0" d="M403.7,415.3c-1.2-76.3-63.7-138-140.3-138c-65.1,0-120.4,43.4-136,106.1c-4.1-0.5-8.2-0.8-12.2-0.8
			c-56.7,0-102.8,46.1-102.8,102.8c0,56.7,46.1,102.8,102.8,102.8h283.8c47.7,0,86.5-38.8,86.5-86.5
			C485.6,455.7,449.3,417.8,403.7,415.3z M399.1,563.7H120.9c-0.5,0-0.9,0-1.4,0l-4.2,0c-43.1,0-78.2-35.1-78.2-78.2
			c0-43.1,35.1-78.2,78.2-78.2c6.1,0,12.4,0.8,18.9,2.4c3.4,0.8,6.9,0.2,9.7-1.7c2.9-1.9,4.8-4.9,5.4-8.3
			c8.9-56.6,56.9-97.7,114.2-97.7c63.8,0,115.7,51.9,115.7,115.7c0,3.2-0.3,6.5-0.5,9.3c-0.3,3.7,1.1,7.2,3.7,9.8
			c2.6,2.5,6.3,3.8,9.9,3.4c2.4-0.3,4.6-0.4,6.8-0.4c34.1,0,61.9,27.8,61.9,61.9C461,535.9,433.2,563.7,399.1,563.7z"/>
	</g>
	<path class="st0" d="M513.8,343.2c-2.6-61.3-53.8-110.7-115.5-110.7c-32,0-61.3,13-82.5,34.5c9.9,2.3,19.4,5.7,28.3,10.1
		c15.1-11.5,33.9-18.2,54.2-18.2c49.2,0,89.3,40,89.3,89.3c0,2.5-0.2,5-0.4,7.2c-0.3,3.9,1.1,7.8,4,10.5c2.8,2.7,6.8,4.1,10.6,3.7
		c1.8-0.2,3.4-0.3,5.1-0.3c25.5,0,46.2,20.7,46.2,46.2c0,25.5-20.7,46.2-46.2,46.2h-9.5c1.3,5.9,2.1,12.1,2.1,18.4
		c0,2.7-0.1,5.3-0.4,7.9h7.8c40,0,72.6-32.6,72.6-72.6C579.4,377.9,550.8,346.7,513.8,343.2z"/>
</g>
</svg>
