<?xml version="1.0" encoding="utf-8"?>
<!-- Generator: Adobe Illustrator 19.0.0, SVG Export Plug-In . SVG Version: 6.00 Build 0)  -->
<svg version="1.1" id="图层_1" xmlns="http://www.w3.org/2000/svg" xmlns:xlink="http://www.w3.org/1999/xlink" x="0px" y="0px"
	 viewBox="60 62.4 716.5 716.5" style="enable-background:new 60 62.4 716.5 716.5;" xml:space="preserve">
<style type="text/css">
	.st0{fill:#666666;}
</style>
<g id="XMLID_73_">
	<path id="XMLID_74_" class="st0" d="M417.5,488.8c80.7,0,146-65.4,146-146c0-80.7-65.4-146-146-146c-80.6,0-146,65.4-146,146
		C271.4,423.4,336.8,488.8,417.5,488.8L417.5,488.8z M417.5,751.5c-48.2,0-254.3-266.4-254.3-406.8c0-140.4,113.9-254.3,254.3-254.3
		c140.4,0,254.3,113.9,254.3,254.3C671.8,485.1,465.7,751.5,417.5,751.5L417.5,751.5z M417.5,751.5"/>
</g>
</svg>
