<?xml version="1.0" encoding="utf-8"?>
<!-- Generator: Adobe Illustrator 19.0.0, SVG Export Plug-In . SVG Version: 6.00 Build 0)  -->
<svg version="1.1" id="图层_1" xmlns="http://www.w3.org/2000/svg" xmlns:xlink="http://www.w3.org/1999/xlink" x="0px" y="0px"
	 viewBox="0 0 595.3 841.9" style="enable-background:new 0 0 595.3 841.9;" xml:space="preserve">
<style type="text/css">
	.st0{fill:#7494AD;}
</style>
<g>
	<g>
		<path class="st0" d="M161.7,329.4l116,67V261.7L194,213.4c-9.6-5.6-12.8-18-7.3-27.6c5.6-9.6,17.9-13,27.6-7.5l63.5,36.7v-87.3
			c0-11.1,9.1-20.2,20.2-20.2c11.1,0,20.2,9.1,20.2,20.2v88l64.8-37.3c6.2-3.6,14-3.8,20.3-0.1c6.3,3.6,10.2,10.4,10.1,17.6
			c0,7.3-3.9,14-10.2,17.6l-85,49.1v134l116.6-67.4v-96.8c0-11.1,9.1-20.2,20.2-20.2c11.1,0,20.2,9.1,20.2,20.2v73.3l75.5-43.7
			c9.7-5.4,22-2.2,27.6,7.5c5.6,9.6,2.3,22-7.3,27.6L495,341.1l64.8,37.3c9.6,5.6,12.8,18,7.3,27.6c-5.6,9.6-17.9,13-27.6,7.5
			l-85-49.1l-116,67l120.1,69.3l85-49.1c9.7-5.4,22-2.2,27.6,7.5c5.6,9.6,2.3,22-7.3,27.6l-64.8,37.3l72.2,41.7
			c9.6,5.6,12.8,18,7.3,27.6c-5.6,9.6-17.9,13-27.6,7.5l-71.5-41.3V633c0,11.1-9.1,20.2-20.2,20.2c-11.1,0-20.2-9.1-20.2-20.2v-96.7
			l-120.8-69.7v138.7l85,49.1c9.6,5.6,12.8,18,7.3,27.6c-5.6,9.6-17.9,13-27.6,7.5l-64.8-37.3v83.3c0,11.1-9.1,20.2-20.2,20.2
			c-11.1,0-20.2-9.1-20.2-20.2v-82.5l-63.5,36.7c-9.7,5.6-22,2.3-27.7-7.4c-5.6-9.7-2.2-22,7.4-27.7l83.7-48.3V466.6l-120.1,69.3
			V634c0,11.1-9.1,20.2-20.2,20.2S117,645.1,117,634v-74.8l-72.2,41.6c-6.2,3.6-14,3.8-20.3,0.1c-6.3-3.6-10.2-10.4-10.1-17.6
			c0-7.3,3.9-14,10.2-17.6l71.5-41.3l-63.5-36.7c-9.3-5.7-12.3-17.9-6.9-27.3c5.4-9.5,17.5-12.8,27.1-7.6l83.7,48.3l120.6-69.7
			L140.6,364l-83.5,48.5c-6.2,3.6-14,3.8-20.3,0.1c-6.3-3.6-10.2-10.4-10.1-17.6c0-7.3,3.9-14,10.2-17.6l63.5-36.7l-75.7-43.5
			c-9.6-5.6-12.8-18-7.3-27.6c5.6-9.6,17.9-13,27.6-7.5l76.2,44.1v-74.8c0-11.1,9.1-20.2,20.2-20.2s20.2,9.1,20.2,20.2L161.7,329.4
			L161.7,329.4z"/>
	</g>
</g>
</svg>
