<?xml version="1.0" encoding="utf-8"?>
<!-- Generator: Adobe Illustrator 19.0.0, SVG Export Plug-In . SVG Version: 6.00 Build 0)  -->
<svg version="1.1" id="图层_1" xmlns="http://www.w3.org/2000/svg" xmlns:xlink="http://www.w3.org/1999/xlink" x="0px" y="0px"
	 viewBox="60 62.4 716.5 716.5" style="enable-background:new 60 62.4 716.5 716.5;" xml:space="preserve">
<style type="text/css">
	.st0{fill:#FFFFFF;}
</style>
<g>
	<g>
		<path class="st0" d="M682.3,297.2H79.2V343h603.1V297.2z M229.6,233.8c-12.6,0-22.9-10.3-22.9-22.9V102.1
			c0-12.6,10.3-22.9,22.9-22.9c12.6,0,22.9,10.3,22.9,22.9v108.8C252.5,223.5,242.2,233.8,229.6,233.8L229.6,233.8z M155.2,428.9
			c0-12.6,10.3-22.9,22.9-22.9h108.8c12.6,0,22.9,10.3,22.9,22.9c0,12.6-10.3,22.9-22.9,22.9H178.1
			C165.5,451.8,155.2,441.5,155.2,428.9L155.2,428.9z M591.9,473.9c12.6,0,22.9,10.3,22.9,22.9v58c0,12.6-10.3,22.9-22.9,22.9
			c-12.6,0-22.9-10.3-22.9-22.9v-58.4C568.9,483.9,579.3,473.9,591.9,473.9L591.9,473.9z M591.9,473.9"/>
		<path class="st0" d="M674.7,557.5c0,12.6-10.3,22.9-22.9,22.9h-58.4c-12.6,0-22.9-10.3-22.9-22.9c0-12.6,10.3-22.9,22.9-22.9h58.4
			C664.4,534.6,674.7,544.9,674.7,557.5L674.7,557.5z M155.2,551.1c0-12.6,10.3-22.9,22.9-22.9h108.8c12.6,0,22.9,10.3,22.9,22.9
			c0,12.6-10.3,22.9-22.9,22.9H178.1C165.5,574,155.2,563.7,155.2,551.1L155.2,551.1z M531.2,233.8c-12.6,0-22.9-10.3-22.9-22.9
			V102.1c0-12.6,10.3-22.9,22.9-22.9c12.6,0,22.9,10.3,22.9,22.9v108.8C554.1,223.5,543.8,233.8,531.2,233.8L531.2,233.8z
			 M531.2,233.8"/>
	</g>
	<path class="st0" d="M353.7,675.5c0,12.6,10.3,22.9,22.9,22.9c12.7,0,22.9-10.3,22.9-22.9c0-12.7-10.3-22.9-22.9-22.9
		C363.9,652.6,353.7,662.9,353.7,675.5L353.7,675.5z M353.7,675.5"/>
	<g>
		<path class="st0" d="M595.7,428.1c69.5,0,126,56.5,126,126c0,69.5-56.5,126-126,126c-69.5,0-126-56.5-126-126
			C469.7,484.6,526.2,428.1,595.7,428.1 M595.7,382.3c-95,0-171.8,76.7-171.8,171.8c0,95,76.7,171.8,171.8,171.8
			c95.1,0,171.8-76.7,171.8-171.8C767.4,459.1,690.7,382.3,595.7,382.3L595.7,382.3z M595.7,382.3"/>
		<path class="st0" d="M378.1,652.6h-213c-27.9,0-51.2-22.9-51.2-51.2v-392c0-27.9,22.9-51.1,51.2-51.1h431
			c27.9,0,51.2,22.9,51.2,51.1v132.5h45V211.3c0-54.2-43.9-98.1-98.1-98.1H167.4c-54.2,0-98.5,43.9-98.5,98.1v388.2
			c0,54.2,43.9,98.1,98.1,98.1h211.1V652.6z M378.1,652.6"/>
	</g>
</g>
</svg>
