<?xml version="1.0" encoding="utf-8"?>
<!-- Generator: Adobe Illustrator 19.0.0, SVG Export Plug-In . SVG Version: 6.00 Build 0)  -->
<svg version="1.1" id="图层_1" xmlns="http://www.w3.org/2000/svg" xmlns:xlink="http://www.w3.org/1999/xlink" x="0px" y="0px"
	 viewBox="60 62.4 716.5 716.5" style="enable-background:new 60 62.4 716.5 716.5;" xml:space="preserve">
<style type="text/css">
	.st0{fill:#FFFFFF;}
</style>
<g>
	<g>
		<path class="st0" d="M304.5,437.2c0-16.2-13.1-29.3-29.3-29.3c-48.6,0-88-39.4-88-88s39.4-88,88-88h0c16.2,0,29.3-13.1,29.3-29.3
			c0-16.2-13.1-29.3-29.3-29.3c-81,0-146.7,65.7-146.7,146.7c0,44.6,19.9,84.5,51.3,111.4c-65.4,34.3-110,102.9-110,181.9
			c0,16.2,13.1,29.3,29.3,29.3s29.3-13.1,29.3-29.3c0-81,65.7-146.6,146.7-146.6C291.4,466.6,304.5,453.4,304.5,437.2L304.5,437.2z
			 M304.5,437.2"/>
	</g>
	<path class="st0" d="M480.5,114.6c50.7,0,96.6,20.6,129.8,53.8c33.2,33.2,53.8,79.1,53.8,129.8c0,50.7-20.5,96.6-53.8,129.8
		c-8.3,8.3-17.4,15.8-27.2,22.5c38.8,14.7,73.6,37.4,102.4,66.1c52.5,52.4,85.1,124.8,85.1,204.7c0,13.8-11.2,25-25,25
		c-13.8,0-25-11.2-25-25c0-66.2-26.8-126-70.2-169.3C607,508.7,547,481.9,480.8,481.8h-0.6c-66.3,0.1-126.2,26.9-169.6,70.1
		c-43.4,43.3-70.2,103.1-70.2,169.3c0,13.8-11.2,25-25,25c-13.8,0-25-11.2-25-25c0-79.9,32.5-152.2,85.1-204.7
		c28.8-28.7,63.6-51.5,102.4-66.1c-9.8-6.6-18.9-14.1-27.2-22.5c-33.2-33.2-53.8-79.1-53.8-129.8c0-50.7,20.6-96.6,53.8-129.8
		C383.9,135.1,429.8,114.6,480.5,114.6L480.5,114.6z M575,203.7c-24.2-24.2-57.6-39.1-94.5-39.1c-36.9,0-70.3,15-94.5,39.1
		c-24.2,24.2-39.1,57.6-39.1,94.5c0,36.9,15,70.3,39.1,94.5c24.1,24.1,57.4,39,94.2,39.1h0.6c36.8-0.1,70.1-15,94.2-39.1
		c24.2-24.2,39.1-57.6,39.1-94.5C614.1,261.3,599.1,227.9,575,203.7L575,203.7z M575,203.7"/>
</g>
</svg>
