<?xml version="1.0" encoding="utf-8"?>
<!-- Generator: Adobe Illustrator 19.0.0, SVG Export Plug-In . SVG Version: 6.00 Build 0)  -->
<svg version="1.1" id="图层_1" xmlns="http://www.w3.org/2000/svg" xmlns:xlink="http://www.w3.org/1999/xlink" x="0px" y="0px"
	 viewBox="0 0 595.3 841.9" style="enable-background:new 0 0 595.3 841.9;" xml:space="preserve">
<style type="text/css">
	.st0{fill:#7494AD;}
</style>
<g>
	<path class="st0" d="M127,558.8c5.4-9.5,17.3-12.7,26.9-7.1c9.5,5.7,12.4,17.6,7.3,26.9l-48.8,84c-5.7,9.5-17.6,12.7-27.3,7.1
		c-9.2-5.4-12.7-17.3-7.1-26.9L127,558.8z"/>
	<path class="st0" d="M360.6,558.8c5.4-9.5,17.3-12.7,26.9-7.1c9.5,5.7,12.4,17.6,7.3,26.9l-48.8,84c-5.7,9.5-17.6,12.7-27.3,7.1
		c-9.2-5.4-12.7-17.3-7.1-26.9L360.6,558.8z"/>
	<path class="st0" d="M108.4,500.4c-15.8-16.1-28.3-34.8-37.3-55.4c-8.4-20.2-12.8-42.3-12.8-65.5s4.2-45.3,12.8-65.5l0.6-1.2
		c8.6-20.2,21.1-38.7,36.6-54.2c15.8-15.2,34.8-28,55.7-36.6l1.2-0.6c19.6-7.8,41.5-12.5,64.3-12.5c17,0,33.3,2.7,49.1,7.2
		c15.8,4.8,31,12,44.4,20.9c13.7,8.9,25.9,19.6,36,31.8h0.3h-0.1c10.5,12.2,19,25.9,25.7,40.8c4.4,8.9,13.4,13.7,22.6,12.5l4.4-0.3
		l4.2-0.6h4.2l3.3-0.3v0.3c15.4,0,30.4,3,43.8,8.6c14.1,5.7,26.5,14.3,37.3,24.7c10.7,10.7,19,23.6,25,37.3
		c5.3,13.4,8.6,28.3,8.6,43.8c0,15.4-3.3,30.4-8.6,43.8c-5.9,14.1-14.3,26.5-25,37.3c-8.9,8.9-19,16.4-30.4,22.1h-0.3
		c-10.7,5.3-23,8.9-35.4,10.7c-12.2,1.5-20.6,12.2-18.8,24.2c1.5,12,12.5,20.2,24.2,18.8c17.5-2.4,34.3-7.4,49.7-14.9v-0.3
		c15.4-7.8,30.1-17.5,42-30.1c14.6-14.6,26.2-31.6,34.3-51c7.8-18.8,12.2-39.4,12.2-60.5c0-21.1-4.4-41.7-12.2-60.2
		c-8-19.4-19.6-36.9-34.3-51.6c-14.3-14.3-31.8-26.2-51.2-34.3c-18.8-7.8-39-12-60.2-12h-0.6l-3.8,0.3h-1.2
		c-7.2-13.4-15.8-25.9-25.7-37.5v0.3c-13.4-15.8-28.3-29.1-45.3-40.2c-17.3-11.3-36-20.6-56.3-26.2c-20-5.7-40.8-8.9-62-8.9
		c-28.6,0-56,5.7-81.1,16.1l-0.9,0.3c-26.2,10.7-50.1,26.8-69.7,46.5c-19.4,19-34.8,42.6-46.2,68.5l-0.6,0.9
		C21,323.2,15,351.2,15,380.1S21,436.4,31.2,462v-0.3c10.7,26.5,26.8,50.1,46.5,69.7c8.4,8.6,22.3,8.6,30.7,0
		C117.4,522.7,117.4,508.8,108.4,500.4L108.4,500.4z"/>
	<path class="st0" d="M308,333.9c-3.4-13.7-14.8-20.7-28.6-17.3c-6.9,1.7-10.9,5.1-14.4,10.8L161.5,498.9
		c-3.5,5.7-4.6,10.9-2.9,17.7c3.4,13.8,14.8,20.7,28.6,17.3l82.5-20.3l-74.3,122.8c-3.5,5.7-4.6,10.9-2.9,17.7
		c3.4,13.7,14.8,20.7,28.6,17.3c6.9-1.7,10.9-5.1,14.3-10.8L339,489.2c3.5-5.7,4.6-10.9,2.9-17.7c-3.4-13.7-14.8-20.7-28.6-17.3
		l-82.5,20.3l74.3-122.8C308.6,345.9,309.7,340.8,308,333.9L308,333.9z"/>
</g>
</svg>
