<?xml version="1.0" encoding="utf-8"?>
<!-- Generator: Adobe Illustrator 19.0.0, SVG Export Plug-In . SVG Version: 6.00 Build 0)  -->
<svg version="1.1" id="图层_1" xmlns="http://www.w3.org/2000/svg" xmlns:xlink="http://www.w3.org/1999/xlink" x="0px" y="0px"
	 viewBox="0 0 595.3 841.9" style="enable-background:new 0 0 595.3 841.9;" xml:space="preserve">
<style type="text/css">
	.st0{fill:#7494AD;}
</style>
<g>
	<path class="st0" d="M405.7,435c-1.2-75.5-63.1-136.6-138.9-136.6c-64.4,0-119.2,43-134.6,105c-4.1-0.5-8.1-0.8-12.1-0.8
		c-56.1,0-101.8,45.7-101.8,101.8c0,56.1,45.7,101.8,101.8,101.8h280.9c47.2,0,85.6-38.4,85.6-85.6
		C486.7,474.9,450.7,437.4,405.7,435z M401.1,581.8H125.7c-0.5,0-0.9,0-1.4,0l-4.2,0c-42.7,0-77.4-34.7-77.4-77.4
		c0-42.7,34.7-77.4,77.4-77.4c6,0,12.3,0.8,18.7,2.4c3.3,0.8,6.8,0.2,9.6-1.7c2.8-1.9,4.8-4.9,5.3-8.3c8.8-56,56.3-96.7,113-96.7
		c63.2,0,114.6,51.4,114.6,114.6c0,3.2-0.3,6.4-0.5,9.2c-0.3,3.6,1.1,7.2,3.7,9.7c2.6,2.5,6.3,3.8,9.8,3.4c2.4-0.3,4.6-0.4,6.7-0.4
		c33.8,0,61.3,27.5,61.3,61.3C462.4,554.3,434.9,581.8,401.1,581.8z"/>
	<g>
		<path class="st0" d="M385.5,221.5C385.5,221.5,385.5,221.5,385.5,221.5c3.4,0,6.7-1.4,9.1-3.8c2.4-2.4,3.8-5.7,3.8-9.1v-44
			c0-7.1-5.8-12.9-12.9-12.9c-7.1,0-12.9,5.8-12.9,12.9v44c0,3.5,1.3,6.7,3.8,9.1C378.8,220.2,382,221.5,385.5,221.5z"/>
		<path class="st0" d="M486.5,263.4C486.5,263.4,486.5,263.4,486.5,263.4c3.4,0,6.7-1.4,9.1-3.8l31.1-31.1c5-5,5-13.2,0-18.3
			c-2.4-2.4-5.7-3.8-9.1-3.8c-3.5,0-6.7,1.3-9.1,3.8l-31.1,31.1c-3.7,3.7-4.8,9.2-2.8,14.1C476.6,260.3,481.3,263.4,486.5,263.4z"/>
		<path class="st0" d="M495.7,443.4c-2.4-2.4-5.7-3.8-9.1-3.8c-3.5,0-6.7,1.3-9.1,3.8c-2.4,2.4-3.8,5.7-3.8,9.1
			c0,3.5,1.3,6.7,3.8,9.1l31.1,31.1c2.4,2.5,5.8,3.8,9.2,3.8c1.1,0,2.2-0.1,3.3-0.4c4.4-1.2,7.9-4.7,9.1-9.1
			c1.2-4.4-0.1-9.2-3.3-12.5L495.7,443.4z"/>
		<path class="st0" d="M572.4,338.6h-44c-4.6,0-8.9,2.5-11.2,6.5c-2.3,4-2.3,8.9,0,12.9c2.3,4,6.6,6.5,11.2,6.5h44
			c7.1,0,12.9-5.8,12.9-12.9C585.3,344.4,579.5,338.6,572.4,338.6z"/>
		<path class="st0" d="M385.5,254.5c53.5,0,97,43.5,97,97c0,38.5-22.6,71.8-55.1,87.5c9.8,3.2,18.9,8.1,26.8,14.4
			c32.7-22.1,54.2-59.5,54.2-101.8c0-67.7-55.1-122.8-122.8-122.8c-48.8,0-91,28.6-110.8,69.9c9.3,0.5,18.3,2,27,4.2
			C318.5,273.9,349.8,254.5,385.5,254.5z"/>
		<path class="st0" d="M275.3,259.6c2.4,2.4,5.7,3.8,9.1,3.8s6.7-1.3,9.1-3.8c2.4-2.4,3.8-5.7,3.8-9.1c0-3.5-1.3-6.7-3.8-9.1
			l-31.1-31.1c-5-5-13.2-5-18.3,0c-5,5-5,13.2,0,18.3L275.3,259.6z"/>
	</g>
</g>
</svg>
