<?xml version="1.0" encoding="utf-8"?>
<!-- Generator: Adobe Illustrator 19.0.0, SVG Export Plug-In . SVG Version: 6.00 Build 0)  -->
<svg version="1.1" id="图层_1" xmlns="http://www.w3.org/2000/svg" xmlns:xlink="http://www.w3.org/1999/xlink" x="0px" y="0px"
	 viewBox="60 62.4 716.5 716.5" style="enable-background:new 60 62.4 716.5 716.5;" xml:space="preserve">
<style type="text/css">
	.st0{fill:#FFFFFF;}
</style>
<path class="st0" d="M86.4,597.9c9.1,9.2,21.5,14.3,34.3,14.3c12.9,0,25.4-5.2,34.4-14.4l262.2-262.2l262.2,262.2
	c18.6,17,47,17,65.6,0c17.3-18.4,17.3-47.1,0-65.6L449.5,236.5c-7.5-9.4-18.2-15.5-30.2-17c-13-0.1-25.6,5.2-34.8,14.4L89,529.7
	c-9.4,8.7-15.1,20.8-15.6,33.6C72.9,576,77.6,588.5,86.4,597.9L86.4,597.9z"/>
</svg>
