<?xml version="1.0" encoding="utf-8"?>
<!-- Generator: Adobe Illustrator 19.0.0, SVG Export Plug-In . SVG Version: 6.00 Build 0)  -->
<svg version="1.1" id="图层_1" xmlns="http://www.w3.org/2000/svg" xmlns:xlink="http://www.w3.org/1999/xlink" x="0px" y="0px"
	 viewBox="60 62.4 716.5 716.5" style="enable-background:new 60 62.4 716.5 716.5;" xml:space="preserve">
<style type="text/css">
	.st0{fill:#999999;}
</style>
<g>
	<g>
		<path class="st0" d="M750.8,363.8c-15.9-23.9-42.1-37.6-69.5-38.7H519.6c10.3-29.6,17.1-61.5,17.1-94.5c0-21.6-2.3-42.1-6.8-62.6
			c-9.1-35.3-41-61.5-80.9-61.5c-45.6,0-83.1,35.3-83.1,79.7v8c-3.4,84.3-71.8,152.6-158.3,158.3h-98c-17.1,0-29.6,11.4-29.6,27.3
			v329.2c0,14.8,12.5,27.3,28.5,27.3h513.7c15.9,0,30.8-4.6,45.6-12.5c13.7-8,23.9-19.4,30.8-33c1.1-2.3,3.4-4.6,3.4-8l61.5-262
			c1.1-3.4,1.1-5.7,1.1-9.1C764.4,395.7,759.9,378.6,750.8,363.8L750.8,363.8z M136.8,407.1h57v274.5h-57V407.1z M705.2,413.9
			L646,665.7c-2.3,4.6-5.7,9.1-10.3,11.4c-3.4,2.3-6.8,3.4-10.2,3.4H250.7V399.1c75.2-18.2,135.5-72.9,159.5-143.5
			c2.3-6.8,4.6-15.9,6.8-25.1c4.6-21.6,4.6-43.3,4.6-43.3V185c0-13.7,11.4-26.2,26.2-26.2c14.8,0,26.2,11.4,26.2,26.2v1.1
			c0,0,4.6,20.5,4.6,43.3c0,28.5-3.4,43.3-3.4,43.3c-4.6,23.9-12.5,45.6-23.9,66.1c-2.3,3.4-3.4,8-3.4,12.5
			c0,14.8,12.5,27.3,28.5,27.3h200.5c10.3,0,19.4,4.6,25.1,12.5C707.5,399.1,707.5,407.1,705.2,413.9L705.2,413.9z M705.2,413.9"/>
	</g>
</g>
</svg>
