<?xml version="1.0" encoding="utf-8"?>
<!-- Generator: Adobe Illustrator 19.0.0, SVG Export Plug-In . SVG Version: 6.00 Build 0)  -->
<svg version="1.1" id="图层_1" xmlns="http://www.w3.org/2000/svg" xmlns:xlink="http://www.w3.org/1999/xlink" x="0px" y="0px"
	 viewBox="60 62.4 716.5 716.5" style="enable-background:new 60 62.4 716.5 716.5;" xml:space="preserve">
<style type="text/css">
	.st0{fill:#666666;}
</style>
<g>
	<g>
		<path class="st0" d="M259.7,184.8c-45.1,0-81.9,36.9-81.9,81.9c0,45.1,36.9,81.9,81.9,81.9s81.9-36.9,81.9-81.9
			C341.6,221.6,304.8,184.8,259.7,184.8L259.7,184.8z M259.7,307.6c-22.5,0-41-18.4-41-41s18.4-41,41-41c22.5,0,41,18.4,41,41
			S282.2,307.6,259.7,307.6L259.7,307.6z M669.3,102.8H177.8c-45.1,0-81.9,36.9-81.9,81.9v491.5c0,45.1,36.9,81.9,81.9,81.9h491.5
			c45.1,0,81.9-36.9,81.9-81.9V184.8C751.2,139.7,714.4,102.8,669.3,102.8L669.3,102.8z M177.8,717.2c-22.5,0-41-18.4-41-41v-18.4
			l161.8-145.4l206.8,204.8H177.8z M710.3,676.3c0,22.5-18.4,41-41,41H562.8L413.3,563.6l174.1-174.1l122.9,122.9V676.3z M710.3,453
			L587.4,328.1L384.6,535l-84-84L136.8,600.5V184.8c0-22.5,18.4-41,41-41h491.5c22.5,0,41,18.4,41,41V453z M710.3,453"/>
	</g>
</g>
</svg>
