<?xml version="1.0" encoding="utf-8"?>
<!-- Generator: Adobe Illustrator 18.1.1, SVG Export Plug-In . SVG Version: 6.00 Build 0)  -->
<svg version="1.1" id="图层_1" xmlns="http://www.w3.org/2000/svg" xmlns:xlink="http://www.w3.org/1999/xlink" x="0px" y="0px"
	 viewBox="0 0 900.5 856.6" enable-background="new 0 0 900.5 856.6" xml:space="preserve">
<g>
	<path fill="#FFFFFF" d="M198.5,613.6C89,613.6,0,524.6,0,415.1s89-198.5,198.5-198.5S397,305.7,397,415.1S308,613.6,198.5,613.6z
		 M198.5,277.6C122.7,277.6,61,339.3,61,415.1c0,75.8,61.7,137.5,137.5,137.5S336,491,336,415.1C336,339.3,274.3,277.6,198.5,277.6z
		"/>
	<path fill="#FFFFFF" d="M654.2,261.6c-72.1,0-130.8-58.7-130.8-130.8S582.1,0,654.2,0S785,58.7,785,130.8S726.3,261.6,654.2,261.6z
		 M654.2,61c-38.5,0-69.8,31.3-69.8,69.8s31.3,69.8,69.8,69.8c38.5,0,69.8-31.3,69.8-69.8S692.7,61,654.2,61z"/>
	<path fill="#FFFFFF" d="M769.7,556c-72.1,0-130.8-58.7-130.8-130.8s58.7-130.8,130.8-130.8S900.5,353,900.5,425.1
		S841.9,556,769.7,556z M769.7,355.3c-38.5,0-69.8,31.3-69.8,69.8c0,38.5,31.3,69.8,69.8,69.8c38.5,0,69.8-31.3,69.8-69.8
		C839.5,386.6,808.2,355.3,769.7,355.3z"/>
	
		<rect x="440.7" y="103.3" transform="matrix(0.5865 0.8099 -0.8099 0.5865 391.9158 -281.0479)" fill="#FFFFFF" width="61" height="280.1"/>
	<path fill="#FFFFFF" d="M654.2,856.6c-72.1,0-130.8-58.7-130.8-130.8S582.1,595,654.2,595S785,653.6,785,725.8
		S726.3,856.6,654.2,856.6z M654.2,656c-38.5,0-69.8,31.3-69.8,69.8c0,38.5,31.3,69.8,69.8,69.8c38.5,0,69.8-31.3,69.8-69.8
		C724,687.3,692.7,656,654.2,656z"/>
	
		<rect x="331.2" y="582.8" transform="matrix(0.8099 0.5865 -0.5865 0.8099 449.2601 -159.8253)" fill="#FFFFFF" width="280.1" height="61"/>
	<rect x="381" y="390.9" fill="#FFFFFF" width="297" height="61"/>
</g>
<rect fill="none" width="900.5" height="856.6"/>
</svg>
