<?xml version="1.0" encoding="utf-8"?>
<!-- Generator: Adobe Illustrator 18.1.1, SVG Export Plug-In . SVG Version: 6.00 Build 0)  -->
<svg version="1.1" id="图层_1" xmlns="http://www.w3.org/2000/svg" xmlns:xlink="http://www.w3.org/1999/xlink" x="0px" y="0px"
	 viewBox="0 0 784 707.8" enable-background="new 0 0 784 707.8" xml:space="preserve">
<path fill="#7A9EB9" d="M262.4,361.2c0-18.1-14.7-32.8-32.8-32.8c-54.4,0-98.4-44.1-98.4-98.4c0-54.4,44.1-98.4,98.4-98.4h0
	c18.1,0,32.8-14.7,32.8-32.8c0-18.1-14.7-32.8-32.8-32.8c-90.6,0-164,73.4-164,164c0,49.9,22.3,94.5,57.4,124.6
	C49.9,393,0,469.7,0,558c0,18.1,14.7,32.8,32.8,32.8s32.8-14.7,32.8-32.8c0-90.6,73.4-164,164-164
	C247.7,394,262.4,379.3,262.4,361.2"/>
<rect x="0.1" fill="none" width="783.8" height="707.8"/>
<path fill="#7A9EB9" d="M459.3,0.3c56.7,0,108,23,145.2,60.2c37.2,37.2,60.1,88.5,60.1,145.2c0,56.7-23,108-60.1,145.2
	c-9.3,9.3-19.5,17.7-30.5,25.1c43.4,16.4,82.3,41.8,114.6,74c58.8,58.6,95.1,139.6,95.1,228.9c0,15.4-12.5,27.9-28,27.9
	c-15.4,0-27.9-12.5-27.9-27.9c0-74-30-141-78.6-189.4c-48.5-48.4-115.6-78.4-189.6-78.5h-0.7c-74.1,0.1-141.1,30.1-189.6,78.5
	c-48.5,48.4-78.6,115.4-78.6,189.4c0,15.4-12.5,27.9-28,27.9c-15.4,0-28-12.5-28-27.9c0-89.3,36.4-170.3,95.2-228.9
	c32.2-32.1,71.1-57.6,114.5-74c-10.9-7.4-21.1-15.8-30.4-25.1c-37.2-37.1-60.1-88.5-60.1-145.2c0-56.7,23-108,60.1-145.2
	C351.2,23.3,402.6,0.3,459.3,0.3 M564.9,100c-27-27-64.4-43.8-105.6-43.8C418,56.2,380.6,73,353.6,100c-27,27-43.8,64.4-43.8,105.7
	c0,41.3,16.7,78.6,43.8,105.7c27,26.9,64.2,43.7,105.3,43.8h0.7c41.1-0.1,78.4-16.8,105.3-43.8c27-27.1,43.8-64.4,43.8-105.7
	C608.7,164.4,592,127.1,564.9,100"/>
<rect fill="none" width="784" height="707.8"/>
</svg>
