<?xml version="1.0" encoding="utf-8"?>
<!-- Generator: Adobe Illustrator 19.0.0, SVG Export Plug-In . SVG Version: 6.00 Build 0)  -->
<svg version="1.1" id="图层_1" xmlns="http://www.w3.org/2000/svg" xmlns:xlink="http://www.w3.org/1999/xlink" x="0px" y="0px"
	 viewBox="60 62.4 716.5 716.5" style="enable-background:new 60 62.4 716.5 716.5;" xml:space="preserve">
<style type="text/css">
	.st0{fill:#999999;}
</style>
<path class="st0" d="M661.3,379.3c-5.9,0-11.5,2.5-15.6,6.7c-4.1,4.3-6.3,10-6,15.9V678c0,29.7-23,54.9-52.7,54.9H183.6
	c-29.7,0-64.2-25.2-64.2-54.9V273.9c0-29.7,34.5-61.4,64.2-61.4h230.6c5.9,0.2,11.6-2,15.9-6.1s6.7-9.7,6.7-15.6
	c0-5.9-2.5-11.5-6.7-15.6c-4.3-4.1-10-6.3-15.9-6.1H183.6C124.2,169.1,76,214.5,76,273.9V678c0,59.5,48.2,98.3,107.6,98.3h403.3
	c59.4,0,96.1-38.9,96.1-98.3V401.9c0.2-5.9-2-11.6-6.1-15.9C672.8,381.7,667.2,379.3,661.3,379.3L661.3,379.3z M750.1,134.4l-33-33
	c-25.1-25.2-69.3-25.2-94.4,0l-62.4,73.4L227.7,493.1v7.8l-0.2,1.3L185.6,644l30.7,27.4l134.2-47.3l1.7,0.4h6.5l318.1-333l73.3-59.8
	C776.2,205.6,776.2,160.5,750.1,134.4L750.1,134.4z M244.7,612.9l19.6-62.2l39,39.1L244.7,612.9L244.7,612.9z M343,566.5L285.6,509
	l297.3-295.8l55.6,55.7L343,566.5z M718.7,197.4l-44.3,44.3l-64.5-64.6l44.3-44.3c4.2-4.2,9.8-6.5,15.7-6.5c6,0,11.6,2.3,15.7,6.5
	l33,33C727.4,174.5,727.4,188.7,718.7,197.4L718.7,197.4z"/>
</svg>
