<?xml version="1.0" encoding="utf-8"?>
<!-- Generator: Adobe Illustrator 19.0.0, SVG Export Plug-In . SVG Version: 6.00 Build 0)  -->
<svg version="1.1" id="图层_1" xmlns="http://www.w3.org/2000/svg" xmlns:xlink="http://www.w3.org/1999/xlink" x="0px" y="0px"
	 viewBox="60 62.4 716.5 716.5" style="enable-background:new 60 62.4 716.5 716.5;" xml:space="preserve">
<style type="text/css">
	.st0{fill:#999999;}
</style>
<path class="st0" d="M595.7,749.6c9.2-9.1,14.3-21.5,14.3-34.3c0-12.9-5.2-25.4-14.4-34.4L333.4,418.6l262.2-262.2
	c17-18.6,17-47,0-65.6c-18.4-17.3-47.1-17.3-65.6,0L234.4,386.5c-9.4,7.5-15.5,18.2-17,30.2c-0.1,13,5.2,25.6,14.4,34.8L527.5,747
	c8.7,9.4,20.8,15.1,33.6,15.6C573.9,763.1,586.3,758.4,595.7,749.6L595.7,749.6z"/>
</svg>
