<?xml version="1.0" encoding="utf-8"?>
<!-- Generator: Adobe Illustrator 19.0.0, SVG Export Plug-In . SVG Version: 6.00 Build 0)  -->
<svg version="1.1" id="图层_1" xmlns="http://www.w3.org/2000/svg" xmlns:xlink="http://www.w3.org/1999/xlink" x="0px" y="0px"
	 viewBox="60 62.4 716.5 716.5" style="enable-background:new 60 62.4 716.5 716.5;" xml:space="preserve">
<style type="text/css">
	.st0{fill:#999999;}
</style>
<g>
	<path class="st0" d="M102.3,341.1L102.3,341.1l0.8,0.1c10-0.2,18-8.2,18.2-18.2V165.8c0-8.3,3.3-16.1,9.1-21.9
		c5.9-5.8,13.6-9,21.9-9c0,0,0,0,0.1,0l168.2,0c6.4,0.2,12.5-3.2,15.8-8.7c3.3-5.6,3.3-12.5,0-18c-3.3-5.6-9.3-8.9-15.7-8.7H152.4
		c-36.8,0.1-66.9,30.1-67.1,66.9v157.3c0,4.7,1.9,9.2,5.2,12.6C93.7,339.1,97.9,341,102.3,341.1z"/>
	<path class="st0" d="M503.3,135.2h177.6c0,0,0.1,0,0.1,0c8.3,0,16,3.2,21.9,9c5.9,5.9,9.1,13.6,9.1,21.9v155.1
		c0,4.7,1.9,9.3,5.2,12.6c3.3,3.3,7.8,5.2,12.5,5.2c0,0,0,0,0,0c0.2,0,0.3,0,0.5,0c9.6,0,17.5-7.7,17.8-17.3V166.6
		c-0.2-36.8-30.3-66.8-67.1-66.9H503.3c-9.8,0-17.7,8-17.7,17.7C485.6,127.2,493.5,135.2,503.3,135.2z"/>
	<path class="st0" d="M729.8,488.9c-9.8,0-17.8,8-17.8,17.8V693c0,8.3-3.3,16.1-9.1,21.9c-5.9,5.8-13.6,9-21.9,9c0,0,0,0-0.1,0
		l-177.6,0c-6.4-0.2-12.5,3.2-15.8,8.7s-3.3,12.5,0,18c3.2,5.4,9,8.7,15.2,8.7c0.2,0,0.3,0,0.5,0h177.6c0.1,0,0.1,0,0.2,0
		c17.7,0,34.4-6.9,46.9-19.4c12.6-12.5,19.6-29.3,19.6-47V506.7C747.6,496.9,739.6,488.9,729.8,488.9z"/>
	<path class="st0" d="M761.4,412.3c-3.3-5.6-9.3-8.9-15.7-8.7l-658,0c-6.4-0.2-12.5,3.2-15.8,8.7c-3.3,5.6-3.3,12.5,0,18
		c3.2,5.4,9,8.7,15.3,8.7c0.2,0,0.3,0,0.5,0h658c6.5,0.2,12.5-3.2,15.7-8.7C764.7,424.7,764.7,417.8,761.4,412.3z"/>
	<path class="st0" d="M319.8,723.6H152c0,0-0.1,0-0.1,0c-8.3,0-16-3.2-21.9-9c-5.9-5.9-9.1-13.6-9.1-21.9l0-186.3
		c-0.3-9.7-8.1-17.3-17.8-17.3c-9.7,0-17.5,7.6-17.8,17.4v186.3c0.2,36.8,30.3,66.8,67.1,66.9h167.8h0c4.8-0.1,9.3-2,12.6-5.4
		c3.3-3.4,5.2-8,5.1-12.8c-0.1-4.8-2-9.3-5.4-12.6C329.1,725.3,324.5,723.5,319.8,723.6z"/>
</g>
</svg>
