<?xml version="1.0" encoding="utf-8"?>
<!-- Generator: Adobe Illustrator 18.1.1, SVG Export Plug-In . SVG Version: 6.00 Build 0)  -->
<svg version="1.1" id="图层_1" xmlns="http://www.w3.org/2000/svg" xmlns:xlink="http://www.w3.org/1999/xlink" x="0px" y="0px"
	 viewBox="0 0 685 662.8" enable-background="new 0 0 685 662.8" xml:space="preserve">
<path fill="#799DB8" d="M549.3,544.4h-53.9c-14.1,0-25.6-11.5-25.6-25.6c0-14.1,11.5-25.6,25.6-25.6h53.9
	c14.1,0,25.6,11.5,25.6,25.6C574.9,533,563.5,544.4,549.3,544.4 M287.2,620.7H70.9C31.8,620.7,0,588.9,0,549.8V120.2
	c0-39.1,31.8-70.9,70.9-70.9h500.6c39.1,0,70.9,31.8,70.9,70.9v85.3c0,14.1-11.5,25.6-25.6,25.6c-14.1,0-25.6-11.5-25.6-25.6v-85.3
	c0-10.9-8.8-19.7-19.7-19.7H70.9c-10.9,0-19.7,8.8-19.7,19.7v429.6c0,10.9,8.8,19.7,19.7,19.7h216.3c14.1,0,25.6,11.5,25.6,25.6
	C312.8,609.2,301.3,620.7,287.2,620.7"/>
<path fill="#799DB8" d="M513.6,662.8c-94.5,0-171.4-76.9-171.4-171.4S419.1,320,513.6,320c94.5,0,171.4,76.9,171.4,171.4
	C685,585.9,608.1,662.8,513.6,662.8 M513.6,376.4c-63.4,0-115,51.6-115,115c0,63.4,51.6,115,115,115c63.4,0,115-51.6,115-115
	C628.6,428,577.1,376.4,513.6,376.4"/>
<path fill="#799DB8" d="M494.9,537.6c-14.1,0-25.6-11.5-25.6-25.6V458c0-14.1,11.5-25.6,25.6-25.6c14.1,0,25.6,11.5,25.6,25.6V512
	C520.5,526.1,509,537.6,494.9,537.6"/>
<polygon fill="#799DB8" points="48.7,258.3 48.8,207.1 642.4,208.7 642.3,259.9 "/>
<path fill="#799DB8" d="M211,0L211,0c14.1,0,25.6,11.5,25.6,25.6v119.5c0,14.1-11.5,25.6-25.6,25.6c-14.1,0-25.6-11.5-25.6-25.6
	V25.6C185.4,11.5,196.9,0,211,0"/>
<path fill="#799DB8" d="M437.9,0.9L437.9,0.9c14.1,0,25.6,11.5,25.6,25.6V146c0,14.1-11.5,25.6-25.6,25.6
	c-14.1,0-25.6-11.5-25.6-25.6V26.5C412.3,12.4,423.7,0.9,437.9,0.9"/>
<path fill="#799DB8" d="M123.2,332.7h126c14.1,0,25.6,11.5,25.6,25.6c0,14.1-11.5,25.6-25.6,25.6h-126c-14.1,0-25.6-11.5-25.6-25.6
	C97.6,344.1,109.1,332.7,123.2,332.7"/>
<path fill="#799DB8" d="M125.3,439.1h126c14.1,0,25.6,11.5,25.6,25.6v0c0,14.1-11.5,25.6-25.6,25.6h-126
	c-14.1,0-25.6-11.5-25.6-25.6v0C99.7,450.5,111.1,439.1,125.3,439.1"/>
<rect fill="none" width="685" height="662.8"/>
</svg>
