<?xml version="1.0" encoding="utf-8"?>
<!-- Generator: Adobe Illustrator 19.0.0, SVG Export Plug-In . SVG Version: 6.00 Build 0)  -->
<svg version="1.1" id="图层_1" xmlns="http://www.w3.org/2000/svg" xmlns:xlink="http://www.w3.org/1999/xlink" x="0px" y="0px"
	 viewBox="0 0 595.3 511" style="enable-background:new 0 0 595.3 511;" xml:space="preserve">
<style type="text/css">
	.st0{clip-path:url(#SVGID_2_);fill:#779AB4;}
</style>
<g>
	<g>
		<defs>
			<rect id="SVGID_1_" x="5" y="16.5" width="585" height="487.1"/>
		</defs>
		<clipPath id="SVGID_2_">
			<use xlink:href="#SVGID_1_"  style="overflow:visible;"/>
		</clipPath>
		<path class="st0" d="M4.9,40.8c0-13.5,10.9-24.4,24.4-24.4h535.8c13.5,0,24.4,10.9,24.4,24.4c0,13.4-10.9,24.4-24.4,24.4H29.2
			C15.8,65.2,4.9,54.4,4.9,40.8L4.9,40.8z M224.1,260c0-13.4,10.9-24.4,24.5-24.4h316.3c13.5,0,24.5,10.8,24.5,24.4
			c0,13.4-10.9,24.4-24.5,24.4H248.6c-6.5,0-12.7-2.5-17.3-7.1C226.7,272.8,224.1,266.5,224.1,260L224.1,260z M4.9,479.3
			c0-13.4,10.9-24.4,24.4-24.4h535.8c13.5,0,24.4,10.9,24.4,24.4c0,13.5-10.9,24.4-24.4,24.4H29.2C15.8,503.6,4.9,492.8,4.9,479.3
			L4.9,479.3z M168.2,155.5L63.7,260l104.6,104.6c9.2,9.6,9.1,24.7-0.3,34.1c-9.4,9.4-24.6,9.5-34.1,0.3L12,277.3
			c-9.5-9.5-9.5-24.9,0-34.4l121.8-121.8c9.6-9.2,24.7-9.1,34.1,0.3C177.3,130.7,177.5,145.9,168.2,155.5L168.2,155.5z M168.2,155.5
			"/>
	</g>
</g>
</svg>
