<?xml version="1.0" encoding="utf-8"?>
<!-- Generator: Adobe Illustrator 18.1.1, SVG Export Plug-In . SVG Version: 6.00 Build 0)  -->
<svg version="1.1" id="图层_1" xmlns="http://www.w3.org/2000/svg" xmlns:xlink="http://www.w3.org/1999/xlink" x="0px" y="0px"
	 viewBox="0 0 566.9 566.9" enable-background="new 0 0 566.9 566.9" xml:space="preserve">
<g>
	<path fill="#7A6C5D" d="M437.4,309.2H127.4c-14.2,0-25.8-11.6-25.8-25.8c0-14.2,11.6-25.8,25.8-25.8h309.9
		c14.2,0,25.8,11.6,25.8,25.8C463.2,297.5,451.6,309.2,437.4,309.2L437.4,309.2z"/>
	<path fill="#7A6C5D" d="M437.4,314.8H127.4c-17.4,0-31.5-14.1-31.5-31.5c0-17.4,14.1-31.5,31.5-31.5h309.9
		c17.4,0,31.5,14.1,31.5,31.5C468.9,300.7,454.7,314.8,437.4,314.8z M127.4,263.2c-11.1,0-20.2,9-20.2,20.2c0,11.1,9,20.2,20.2,20.2
		h309.9c11.1,0,20.2-9,20.2-20.2c0-11.1-9-20.2-20.2-20.2H127.4z"/>
</g>
<g>
	<path fill="#7A6C5D" d="M282.4,464.1c-14.2,0-25.8-11.6-25.8-25.8V128.4c0-14.2,11.6-25.8,25.8-25.8c14.2,0,25.8,11.6,25.8,25.8
		v309.9C308.2,452.5,296.6,464.1,282.4,464.1L282.4,464.1z"/>
	<path fill="#7A6C5D" d="M282.4,469.8c-17.4,0-31.5-14.1-31.5-31.5V128.4c0-17.4,14.1-31.5,31.5-31.5c17.4,0,31.5,14.1,31.5,31.5
		v309.9C313.9,455.7,299.8,469.8,282.4,469.8z M282.4,108.2c-11.1,0-20.2,9-20.2,20.2v309.9c0,11.1,9,20.2,20.2,20.2
		c11.1,0,20.2-9,20.2-20.2V128.4C302.6,117.2,293.5,108.2,282.4,108.2z"/>
</g>
<g>
	<path fill="#7A6C5D" d="M282.4,9C131.5,9,8.1,132.5,8.1,283.3c0,150.9,123.4,274.3,274.3,274.3c150.9,0,274.3-123.4,274.3-274.3
		C556.7,132.5,433.3,9,282.4,9z M282.4,523C150.6,523,42.7,415.2,42.7,283.3c0-131.8,107.9-239.7,239.7-239.7
		c131.8,0,239.7,107.9,239.7,239.7C522.1,415.2,414.2,523,282.4,523z"/>
	<path fill="#7A6C5D" d="M282.4,563.2c-74.5,0-144.6-29.2-197.7-82.2c-53-53-82.2-123.2-82.2-197.7c0-74.5,29.2-144.6,82.2-197.7
		c53-53,123.2-82.2,197.7-82.2c74.5,0,144.7,29.2,197.7,82.2c53,53,82.2,123.2,82.2,197.7c0,74.5-29.2,144.7-82.2,197.7
		S356.9,563.2,282.4,563.2z M282.4,14.6c-148.2,0-268.7,120.6-268.7,268.7c0,148.2,120.6,268.7,268.7,268.7
		c148.2,0,268.7-120.6,268.7-268.7C551.1,135.1,430.6,14.6,282.4,14.6z M282.4,528.6c-65.2,0-126.8-25.6-173.2-72s-72-108-72-173.2
		c0-65.2,25.6-126.8,72-173.2c46.5-46.5,108-72,173.2-72c65.3,0,126.8,25.6,173.2,72s72,108,72,173.2c0,65.3-25.6,126.8-72,173.2
		C409.2,503,347.7,528.6,282.4,528.6z M282.4,49.2c-129.1,0-234.1,105-234.1,234.1c0,129.1,105,234.1,234.1,234.1
		c129.1,0,234.1-105,234.1-234.1C516.5,154.2,411.5,49.2,282.4,49.2z"/>
</g>
<path stroke="#000000" stroke-width="11.3386" stroke-miterlimit="10" d="M282.4-23.9"/>
</svg>
