<?xml version="1.0" encoding="utf-8"?>
<!-- Generator: Adobe Illustrator 19.0.0, SVG Export Plug-In . SVG Version: 6.00 Build 0)  -->
<svg version="1.1" id="图层_1" xmlns="http://www.w3.org/2000/svg" xmlns:xlink="http://www.w3.org/1999/xlink" x="0px" y="0px"
	 viewBox="60 62.4 716.5 716.5" style="enable-background:new 60 62.4 716.5 716.5;" xml:space="preserve">
<style type="text/css">
	.st0{fill:#7A9FBA;}
</style>
<g>
	<path class="st0" d="M419.7,87.4C234.3,87.4,84,237.7,84,423.1c0,185.4,150.3,335.7,335.7,335.7c185.4,0,335.7-150.3,335.7-335.7
		C755.4,237.7,605.1,87.4,419.7,87.4L419.7,87.4z M624.6,628.1c-26.6,26.6-57.6,47.5-92.1,62.1c-35.7,15.1-73.7,22.8-112.8,22.8
		c-39.2,0-77.1-7.7-112.8-22.8c-34.5-14.6-65.5-35.5-92.1-62.1c-26.6-26.6-47.5-57.6-62.1-92.1c-15.1-35.7-22.8-73.7-22.8-112.8
		c0-39.1,7.7-77.1,22.8-112.8c14.6-34.5,35.5-65.5,62.1-92.1c26.6-26.6,57.6-47.5,92.1-62.1c35.7-15.1,73.7-22.8,112.8-22.8
		c39.1,0,77.1,7.7,112.8,22.8c34.5,14.6,65.5,35.5,92.1,62.1c26.6,26.6,47.5,57.6,62.1,92.1c15.1,35.7,22.8,73.7,22.8,112.8
		c0,39.2-7.7,77.1-22.8,112.8C672.2,570.4,651.3,601.4,624.6,628.1L624.6,628.1z M624.6,628.1"/>
	<path class="st0" d="M596.3,400.2H442.6V246.5c0-12.7-10.3-22.9-22.9-22.9c-12.7,0-22.9,10.3-22.9,22.9v153.7H243
		c-12.7,0-22.9,10.3-22.9,22.9c0,12.7,10.3,22.9,22.9,22.9h153.7v153.7c0,12.7,10.3,22.9,22.9,22.9c12.7,0,22.9-10.3,22.9-22.9V446
		h153.7c12.7,0,22.9-10.3,22.9-22.9C619.3,410.4,609,400.2,596.3,400.2L596.3,400.2z M596.3,400.2"/>
</g>
</svg>
