<?xml version="1.0" encoding="utf-8"?>
<!-- Generator: Adobe Illustrator 18.1.1, SVG Export Plug-In . SVG Version: 6.00 Build 0)  -->
<svg version="1.1" id="图层_1" xmlns="http://www.w3.org/2000/svg" xmlns:xlink="http://www.w3.org/1999/xlink" x="0px" y="0px"
	 viewBox="0 0 566.9 566.9" enable-background="new 0 0 566.9 566.9" xml:space="preserve">
<g>
	<g>
		<path fill="#7A9EB9" d="M556.5,506.4L446.6,396.5c82-109.7,59.6-265.1-50.1-347.1c-109.6-82-265.1-59.6-347.1,50.1
			C17.3,142.4,0,194.4,0,248c0,136.9,111,248,248,248c53.5,0,105.6-17.3,148.5-49.4l109.8,109.8c13.8,13.9,36.3,13.9,50.1,0.1
			C570.3,542.7,570.3,520.2,556.5,506.4L556.5,506.4z M247.9,425.1c-97.8,1.4-178.2-76.8-179.6-174.6
			c-1.4-97.8,76.8-178.2,174.6-179.6h5C345.7,70.9,425,150.2,425,248C425,345.8,345.8,425.1,247.9,425.1L247.9,425.1z M247.9,425.1"
			/>
	</g>
</g>
</svg>
