<?xml version="1.0" encoding="utf-8"?>
<!-- Generator: Adobe Illustrator 19.0.0, SVG Export Plug-In . SVG Version: 6.00 Build 0)  -->
<svg version="1.1" id="图层_1" xmlns="http://www.w3.org/2000/svg" xmlns:xlink="http://www.w3.org/1999/xlink" x="0px" y="0px"
	 viewBox="60 62.4 716.5 716.5" style="enable-background:new 60 62.4 716.5 716.5;" xml:space="preserve">
<style type="text/css">
	.st0{fill:#7A9FBA;}
</style>
<g>
	<g>
		<path class="st0" d="M613,331.7h43.5v43.5H613V331.7z M460.8,331.7h108.7v43.5H460.8L460.8,331.7L460.8,331.7z M308.6,636.2H526
			v43.5H308.6L308.6,636.2L308.6,636.2z M308.6,527.4H526v43.5H308.6L308.6,527.4L308.6,527.4z M178.1,570.9h43.5v-87h-43.5v-43.5
			h478.4v43.5H613v87h43.5c47.5,0,65.2-17.7,65.2-65.2v-174c0-36-29.3-65.2-65.2-65.2H178.1c-36,0-65.2,29.3-65.2,65.2v174
			C112.9,540.8,162.6,570.9,178.1,570.9L178.1,570.9z M765.3,331.7v174c0,89.9-59.1,108.7-108.7,108.7H613v152.2H221.6V614.4h-43.5
			c-36.2,0-108.7-47-108.7-108.7v-174c0-60,48.8-108.7,108.7-108.7h65.2V70.8h347.9V223h65.2C716.5,223,765.3,271.8,765.3,331.7
			L765.3,331.7z M569.5,723.2V483.9H265.1v239.2H569.5z M547.8,223V114.3h-261V223H547.8z M547.8,223"/>
	</g>
</g>
</svg>
