<?xml version="1.0" encoding="utf-8"?>
<!-- Generator: Adobe Illustrator 19.0.0, SVG Export Plug-In . SVG Version: 6.00 Build 0)  -->
<svg version="1.1" id="图层_1" xmlns="http://www.w3.org/2000/svg" xmlns:xlink="http://www.w3.org/1999/xlink" x="0px" y="0px"
	 viewBox="60 62.4 716.5 716.5" style="enable-background:new 60 62.4 716.5 716.5;" xml:space="preserve">
<style type="text/css">
	.st0{fill:#999999;}
</style>
<g>
	<rect x="216.2" y="167.3" class="st0" width="547.8" height="78.3"/>
	<rect x="216.2" y="382.5" class="st0" width="547.8" height="78.3"/>
	<rect x="216.2" y="597.7" class="st0" width="547.8" height="97.8"/>
	<path class="st0" d="M67,229.3c0,18.9,10.1,36.5,26.5,45.9c16.4,9.5,36.6,9.5,53,0s26.5-27,26.5-45.9s-10.1-36.4-26.5-45.9
		s-36.6-9.5-53,0C77.1,192.8,67,210.3,67,229.3L67,229.3z"/>
	<path class="st0" d="M67,441.3c0,18.9,10.1,36.4,26.5,45.9s36.6,9.5,53,0s26.5-27,26.5-45.9s-10.1-36.5-26.5-45.9
		c-16.4-9.5-36.6-9.5-53,0S67,422.4,67,441.3L67,441.3z"/>
	<path class="st0" d="M67,653.4c0,18.9,10.1,36.4,26.5,45.9s36.6,9.5,53,0s26.5-27,26.5-45.9s-10.1-36.4-26.5-45.9s-36.6-9.5-53,0
		S67,634.5,67,653.4L67,653.4z"/>
</g>
</svg>
