<?xml version="1.0" encoding="utf-8"?>
<!-- Generator: Adobe Illustrator 19.0.0, SVG Export Plug-In . SVG Version: 6.00 Build 0)  -->
<svg version="1.1" id="图层_1" xmlns="http://www.w3.org/2000/svg" xmlns:xlink="http://www.w3.org/1999/xlink" x="0px" y="0px"
	 viewBox="60 62.4 716.5 716.5" style="enable-background:new 60 62.4 716.5 716.5;" xml:space="preserve">
<style type="text/css">
	.st0{fill:#999999;}
</style>
<path class="st0" d="M745,285.8c-9.1-9.2-21.5-14.3-34.3-14.3c-12.9,0-25.4,5.2-34.4,14.4L414.1,548.1L151.9,285.9
	c-18.6-17-47-17-65.6,0C69,304.2,69,333,86.3,351.5L382,647.1c7.5,9.4,18.2,15.5,30.2,17c13,0.1,25.6-5.2,34.8-14.4L742.5,354
	c9.4-8.7,15.1-20.8,15.6-33.6C758.6,307.6,753.8,295.2,745,285.8L745,285.8z"/>
</svg>
