<?xml version="1.0" encoding="utf-8"?>
<!-- Generator: Adobe Illustrator 19.0.0, SVG Export Plug-In . SVG Version: 6.00 Build 0)  -->
<svg version="1.1" id="图层_1" xmlns="http://www.w3.org/2000/svg" xmlns:xlink="http://www.w3.org/1999/xlink" x="0px" y="0px"
	 viewBox="60 62.4 716.5 716.5" style="enable-background:new 60 62.4 716.5 716.5;" xml:space="preserve">
<style type="text/css">
	.st0{fill:#999999;}
</style>
<path class="st0" d="M719.1,203.2v29c0.1,3.9-1.4,7.7-4.1,10.4c-2.8,2.7-6.6,4.2-10.4,4H661v429.6c0,25.1-7.1,46.8-21.3,65.1
	s-31.3,27.4-51.2,27.4h-377c-20,0-37-8.9-51.2-26.5S139,703.1,139,678.1V246.7H95.5c-3.9,0.2-7.7-1.3-10.4-4
	c-2.8-2.7-4.3-6.5-4.1-10.4v-29.1c-0.1-3.9,1.4-7.7,4.1-10.4c2.8-2.8,6.5-4.3,10.5-4.1h140.1l31.7-75.7
	c4.5-11.2,12.6-20.7,24.5-28.6c11.7-7.8,23.7-11.7,35.8-11.7h145c12,0,24,3.9,35.8,11.8s20,17.4,24.5,28.6l31.7,75.7h140
	c3.9-0.1,7.7,1.4,10.4,4.1C717.7,195.6,719.2,199.3,719.1,203.2L719.1,203.2z M603,676.3V246.7H197v429.6c-0.1,6.3,1,12.5,3.2,18.3
	c2.1,5.6,4.3,9.7,6.6,12.3s3.9,3.9,4.7,3.9h377c1,0,2.5-1.2,4.7-3.9c2.3-2.6,4.4-6.7,6.6-12.3C602.1,688.7,603.1,682.5,603,676.3
	L603,676.3z M313.1,348.2v261c0.2,3.9-1.3,7.7-4.1,10.4c-2.8,2.7-6.5,4.2-10.4,4h-29c-3.9,0.2-7.7-1.3-10.4-4
	c-2.7-2.8-4.2-6.5-4.1-10.4v-261c-0.1-3.9,1.4-7.7,4.1-10.4c2.8-2.8,6.5-4.3,10.4-4.1h29c3.9-0.1,7.7,1.4,10.4,4.1
	C311.8,340.5,313.3,344.3,313.1,348.2L313.1,348.2z M298.5,188.7h202.9l-21.8-53c-1.9-2.6-4.6-4.3-7.7-5H328.4
	c-3.1,0.6-5.8,2.4-7.7,5L298.5,188.7z M429,348.2v261c0.2,3.9-1.3,7.7-4,10.4s-6.5,4.2-10.4,4h-28.9c-3.9,0.2-7.6-1.3-10.4-4
	c-2.7-2.8-4.2-6.5-4.1-10.4v-261c-0.1-3.9,1.4-7.7,4.1-10.4c2.8-2.8,6.5-4.3,10.5-4.1h29c3.9-0.1,7.7,1.4,10.4,4.1
	C427.8,340.6,429.2,344.3,429,348.2L429,348.2z M545.1,348.2v261c0.1,3.9-1.4,7.7-4.1,10.4c-2.8,2.7-6.6,4.2-10.4,4h-28.9
	c-3.9,0.2-7.7-1.3-10.4-4c-2.7-2.7-4.2-6.5-4-10.4v-261c-0.2-3.9,1.3-7.7,4-10.4c2.7-2.8,6.5-4.3,10.4-4.1h29
	c3.9-0.1,7.7,1.4,10.4,4.1C543.8,340.6,545.3,344.3,545.1,348.2L545.1,348.2z"/>
</svg>
