<?xml version="1.0" encoding="utf-8"?>
<!-- Generator: Adobe Illustrator 19.0.0, SVG Export Plug-In . SVG Version: 6.00 Build 0)  -->
<svg version="1.1" id="图层_1" xmlns="http://www.w3.org/2000/svg" xmlns:xlink="http://www.w3.org/1999/xlink" x="0px" y="0px"
	 viewBox="60 62.4 716.5 716.5" style="enable-background:new 60 62.4 716.5 716.5;" xml:space="preserve">
<style type="text/css">
	.st0{fill:#999999;}
</style>
<g>
	<g>
		<path class="st0" d="M248.7,77h360.4c19.2,0,36.8,7.6,49.6,19.8c13,12.5,21.1,29.7,21.1,48.7v589.9c0,12.6-10.2,22.7-22.8,22.7
			c-4.9,0-9.4-1.5-13.1-4.2L442.2,634.1c-4.1-2.5-8.8-3.7-13.3-3.7c-4.6,0-9.2,1.2-13.3,3.7l-203,120.7c-10.8,6.4-24.7,2.9-31.2-7.8
			c-2.2-3.6-3.2-7.7-3.2-11.6H178V145.5c0-19,8.1-36.2,21.1-48.7C211.9,84.6,229.5,77,248.7,77L248.7,77z M600.6,131H257.3
			c-7.1,0-13.5,2.7-18,7.1c-4.3,4.1-7,9.8-7,16v526.6l159.9-95c11.5-6.9,24.1-10.3,36.7-10.3c12.6,0,25.2,3.4,36.7,10.3l160.1,95.1
			V154.1c0-6.2-2.7-11.9-7-16C614.1,133.7,607.7,131,600.6,131L600.6,131z M600.6,131"/>
	</g>
	<path class="st0" d="M562.2,380.6H295.7c-14.9,0-27.1-12.2-27.1-27.1c0-14.9,12.2-27.1,27.1-27.1h266.5c14.9,0,27.1,12.2,27.1,27.1
		C589.2,368.4,577.1,380.6,562.2,380.6L562.2,380.6z M562.2,380.6"/>
	<path class="st0" d="M456,220.3v266.5c0,14.9-12.2,27.1-27.1,27.1c-14.9,0-27.1-12.2-27.1-27.1V220.3c0-14.9,12.2-27.1,27.1-27.1
		C443.8,193.3,456,205.4,456,220.3L456,220.3z M456,220.3"/>
</g>
</svg>
