<?xml version="1.0" encoding="utf-8"?>
<!-- Generator: Adobe Illustrator 19.0.0, SVG Export Plug-In . SVG Version: 6.00 Build 0)  -->
<svg version="1.1" id="图层_1" xmlns="http://www.w3.org/2000/svg" xmlns:xlink="http://www.w3.org/1999/xlink" x="0px" y="0px"
	 viewBox="60 62.4 716.5 716.5" style="enable-background:new 60 62.4 716.5 716.5;" xml:space="preserve">
<style type="text/css">
	.st0{fill:#666666;}
</style>
<g>
	<g>
		<path class="st0" d="M760.9,517.4c0,14.9-5.3,27.7-15.7,38L538,763.2c-11,10.4-23.8,15.7-38.5,15.7c-14.9,0-27.7-5.3-38-15.7
			L159.4,460.8c-10.6-10.4-19.8-24.6-27.3-42.6c-7.5-18-11.2-34.4-11.2-49.4V193c0-14.6,5.4-27.3,16.1-38
			c10.6-10.6,23.4-16.1,38-16.1h175.8c14.9,0,31.4,3.8,49.4,11.2c18,7.4,32.3,16.5,43,27.3L745.3,479
			C755.7,489.9,760.9,502.8,760.9,517.4L760.9,517.4z M294.4,312.4c10.6-10.6,15.8-23.3,15.8-38.2c0-14.9-5.3-27.7-15.8-38.2
			c-10.6-10.6-23.3-15.8-38.2-15.8c-14.9,0-27.7,5.3-38.2,15.8c-10.5,10.6-15.8,23.3-15.8,38.2c0,14.9,5.3,27.7,15.8,38.2
			c10.6,10.6,23.3,15.8,38.2,15.8C271.1,328.2,283.8,322.8,294.4,312.4L294.4,312.4z M294.4,312.4"/>
	</g>
</g>
</svg>
