<?xml version="1.0" encoding="utf-8"?>
<!-- Generator: Adobe Illustrator 19.0.0, SVG Export Plug-In . SVG Version: 6.00 Build 0)  -->
<svg version="1.1" id="Слой_1" xmlns="http://www.w3.org/2000/svg" xmlns:xlink="http://www.w3.org/1999/xlink" x="0px" y="0px"
	 viewBox="0 0 1200 1000" style="enable-background:new 0 0 1200 1000;" xml:space="preserve">
<style type="text/css">
	.st0{fill:#28BCBA;}
	.st1{fill:#EE529C;}
</style>
<g>
	<g>
		<g>
			<g>
				<path class="st0" d="M33.3,653.4c0,30.6,46.4,30.6,46.4,0C79.6,622.8,33.3,622.8,33.3,653.4z M36.8,856.9h39.3V697.5H36.8V856.9
					z M227.5,822.1c-55.7,0-77.3-39-77.6-76.3c-0.3-37.7,23.2-78.3,77.6-78.3c19.6,0,39.6,6.8,54.4,21.3l28.3-27.4
					C287,638.6,258.1,627,227.5,627C146,627,107.6,686.9,108,745.8c0.3,58.6,35.7,116.3,119.5,116.3c32.5,0,62.5-10.6,85.7-33.5
					l-29-29.3C269.3,814.1,247.1,822.1,227.5,822.1z M451.9,720c-9-15.8-29.3-25.8-50.6-25.8c-46.4-0.3-82.8,28.3-82.8,83.1
					c0,55.7,34.8,84.7,81.8,84.4c17.7-0.3,42.5-9.3,51.5-28l1.9,23.2h37V698.1h-37.7L451.9,720z M404.9,825.7c-26.1,0-47-18-47-48.3
					c0-30.3,20.9-48,47-48C466.7,729.4,466.7,825.7,404.9,825.7z M524.1,856.9h39V631.8h-39V856.9z M596.5,836.6
					c0,30.6,46.4,30.6,46.4,0C642.9,806,596.5,806,596.5,836.6z"/>
				<path class="st1" d="M685.7,856.9h39V631.8h-39V856.9z M755.6,653.4c0,30.6,46.4,30.6,46.4,0C802,622.8,755.6,622.8,755.6,653.4
					z M759.2,856.9h39.3V697.5h-39.3V856.9z M933.7,751l-24.2,66.3l-24.5-67l-21.9-52.5h-42.8l68,159.7h42.5l67.6-159.7h-42.8
					L933.7,751z M1094.7,693.3c-51.5,0-84.4,34.8-84.4,83.1c0,50.9,32.5,84.7,87.3,84.7c24.2,0,51.5-8.4,68.3-25.8l-25.1-24.8
					c-9,9.3-28,14.8-42.5,14.8c-27.7,0-44.8-14.2-47.3-33.8h124C1181,726.2,1147.9,693.3,1094.7,693.3z M1051.6,759
					c5.8-20.6,23.2-30.9,44.4-30.9c22.5,0,38.6,10.3,41.2,30.9H1051.6z"/>
			</g>
		</g>
		<path class="st0" d="M77.3,916.7c-2.3-2.1-5-3.6-8.1-4.7c-3.1-1.1-6.6-1.6-10.4-1.6c-3.8,0-7.2,0.6-10.4,1.6
			c-3.1,1.1-5.8,2.7-8.1,4.8c-2.3,2.1-4,4.6-5.3,7.6c-1.3,3-1.9,6.4-1.9,10.1c0,3.9,0.6,7.3,1.9,10.3c1.2,3,3,5.5,5.3,7.6
			c2.3,2.1,5,3.6,8.1,4.7c3.1,1.1,6.6,1.6,10.4,1.6c3.8,0,7.2-0.5,10.4-1.6c3.1-1.1,5.8-2.6,8.1-4.7c2.3-2.1,4-4.6,5.3-7.6
			c1.2-3,1.9-6.4,1.9-10.3c0-3.8-0.6-7.2-1.9-10.2C81.3,921.3,79.6,918.8,77.3,916.7z M70.5,939.8c-0.6,1.6-1.4,3-2.5,4.1
			c-1.1,1.2-2.4,2.1-4,2.7c-1.6,0.6-3.3,1-5.2,1c-1.8,0-3.5-0.3-5.1-1c-1.5-0.6-2.9-1.5-4-2.7c-1.1-1.1-2-2.5-2.6-4.1
			c-0.6-1.6-0.9-3.4-0.9-5.3c0-1.9,0.3-3.6,0.9-5.2c0.6-1.6,1.5-3,2.6-4.1c1.1-1.2,2.4-2.1,4-2.7c1.6-0.6,3.3-1,5.1-1
			c3.9,0,6.9,1.2,9.2,3.5c2.3,2.3,3.4,5.5,3.4,9.5C71.4,936.5,71.1,938.2,70.5,939.8z M134.5,927.3c0,0.4,0,0.9,0,1.4
			c0,0.5,0,1.2,0.1,1.9c0,0.7,0.1,1.6,0.1,2.6c0,1,0.1,2.2,0.2,3.5l-19.5-25.2h-11.1v46h13.2v-14.7l-0.2-10.1l19.2,24.8h11v-46
			h-13.1V927.3z M183.1,911.5h-13v46h35.1v-11.1h-22V911.5z M224,957.5h13v-46h-13V957.5z M289.6,927.3c0,0.4,0,0.9,0,1.4
			c0,0.5,0,1.2,0.1,1.9c0,0.7,0.1,1.6,0.1,2.6c0,1,0.1,2.2,0.2,3.5l-19.5-25.2h-11v46h13.2v-14.7l-0.2-10.1l19.2,24.8h11.1v-46
			h-13.1V927.3z M338,939.6h21.8V929H338v-6.6h23.1v-10.9h-35.9v46H362v-11h-24V939.6z M405.2,922.2h13.4v35.3h13v-35.3h13.5v-10.7
			h-39.9V922.2z M463.9,957.5h13v-46h-13V957.5z M525.1,927.1L513,911.5h-13.6v46h12.9v-27.4l11.5,13.9h2.3l11.8-13.9v27.4h12.9v-46
			h-13.5L525.1,927.1z M586,939.6h21.8V929H586v-6.6h23.1v-10.9h-35.9v46h36.8v-11h-24V939.6z M690.4,932.6c-1.8-1.2-3.7-2.1-6-2.7
			c-2.2-0.6-4.5-1-6.8-1.3c-1.1-0.1-2.2-0.3-3.1-0.4c-0.9-0.1-1.7-0.3-2.4-0.6c-0.7-0.3-1.2-0.7-1.5-1.2c-0.4-0.5-0.6-1.1-0.6-1.9
			c0-0.6,0.2-1.1,0.5-1.6c0.4-0.4,0.8-0.8,1.4-1.1c0.6-0.3,1.3-0.5,2-0.6c0.7-0.1,1.5-0.2,2.3-0.2c2,0,3.9,0.2,5.7,0.7
			c1.8,0.5,3.5,1.3,5.1,2.5l6.4-8.2c-2.5-2-5.1-3.4-7.9-4.2c-2.8-0.8-5.9-1.3-9.3-1.3c-2.5,0-4.8,0.3-7.1,0.8
			c-2.3,0.6-4.4,1.4-6.2,2.5c-1.8,1.1-3.2,2.6-4.3,4.3c-1.1,1.8-1.6,3.9-1.6,6.3c0,2.8,0.5,5.2,1.5,7c1,1.8,2.4,3.3,4.1,4.4
			c1.7,1.1,3.7,1.9,6,2.4c2.3,0.5,4.7,0.9,7.2,1.1c5.1,0.5,7.7,1.9,7.7,4.2c0,1.3-0.7,2.3-2,3c-1.3,0.7-3.1,1.1-5.2,1.1
			c-1,0-2-0.1-3.1-0.2c-1.1-0.1-2.2-0.4-3.4-0.8c-1.2-0.4-2.3-0.9-3.5-1.6c-1.2-0.7-2.3-1.6-3.5-2.7l-7.2,8.2c1.6,1.7,3.2,3,4.7,4.1
			c1.6,1.1,3.2,1.9,4.8,2.5c1.6,0.6,3.4,1,5.2,1.2c1.8,0.2,3.8,0.3,5.8,0.3c2.6,0,5.1-0.3,7.5-0.9c2.4-0.6,4.6-1.5,6.4-2.7
			c1.9-1.2,3.4-2.7,4.5-4.6c1.1-1.9,1.7-4.2,1.7-6.8c0-2.6-0.6-4.9-1.6-6.7C693.5,935.3,692.1,933.8,690.4,932.6z M746.5,945.1
			c-0.9,0.6-1.9,1.1-2.8,1.4c-0.9,0.4-1.9,0.6-2.8,0.8c-0.9,0.2-1.8,0.3-2.6,0.3c-2.3,0-4.2-0.4-5.8-1.2c-1.6-0.8-2.8-1.8-3.8-3
			c-1-1.2-1.7-2.6-2.1-4.1c-0.4-1.5-0.7-3-0.7-4.5c0-1.5,0.2-3,0.7-4.6c0.4-1.6,1.1-3,2.1-4.3c1-1.3,2.3-2.3,3.8-3.2
			c1.6-0.8,3.5-1.2,5.7-1.2c1.5,0,3.1,0.3,4.8,0.8c1.7,0.6,3.3,1.6,5,3.2l8-7.9c-2.6-2.5-5.4-4.4-8.4-5.6c-3-1.2-6.1-1.8-9.4-1.8
			c-4.3,0-8.1,0.7-11.2,2.1c-3.2,1.4-5.8,3.3-7.9,5.6c-2.1,2.3-3.6,4.9-4.6,7.9c-1,2.9-1.5,5.8-1.5,8.8c0,3.1,0.5,6.1,1.4,9
			c0.9,2.9,2.4,5.4,4.4,7.6c2,2.2,4.6,4,7.8,5.3c3.2,1.3,7,2,11.5,2c3.5,0,6.8-0.5,9.9-1.6c3.1-1.1,5.9-2.9,8.6-5.5l-7.6-8.6
			C748.3,943.8,747.4,944.6,746.5,945.1z M804.9,929.1h-16.6v-17.5h-13v46h13v-17.4h16.6v17.4h12.9v-46h-12.9V929.1z M853.1,939.6
			h21.8V929h-21.8v-6.6h23.1v-10.9h-35.9v46h36.8v-11h-24V939.6z M935.5,918.1c-2-2-4.5-3.7-7.5-4.8c-3-1.2-6.5-1.8-10.6-1.8h-19.7
			v46h19.7c4.1,0,7.7-0.6,10.7-1.9c3-1.2,5.5-2.9,7.5-5.1c2-2.1,3.4-4.6,4.4-7.4c1-2.8,1.4-5.8,1.4-9c0-3.2-0.5-6.1-1.5-8.9
			C939,922.5,937.5,920.1,935.5,918.1z M927.9,938.7c-0.4,1.5-1,2.8-1.9,4c-0.9,1.2-2,2.1-3.5,2.8c-1.4,0.7-3.2,1-5.2,1h-6.8v-24.2
			h6.8c2,0,3.7,0.3,5.1,1c1.4,0.6,2.6,1.5,3.5,2.5c0.9,1.1,1.6,2.3,2,3.7c0.4,1.4,0.6,2.9,0.6,4.5
			C928.5,935.6,928.3,937.2,927.9,938.7z M991.3,937.3c0,3.5-0.8,6.1-2.4,7.7c-1.6,1.6-3.7,2.4-6.3,2.4c-2.6,0-4.7-0.8-6.3-2.4
			c-1.6-1.6-2.4-4.2-2.4-7.9v-25.6h-13v25.6c0,3.5,0.5,6.6,1.5,9.3c1,2.7,2.4,4.9,4.3,6.7c1.9,1.8,4.2,3.1,6.8,4
			c2.7,0.9,5.7,1.4,9.1,1.4c3.4,0,6.4-0.5,9.1-1.4c2.7-0.9,5-2.3,6.8-4.1c1.9-1.8,3.3-4,4.3-6.6c1-2.6,1.5-5.7,1.5-9.1v-25.7h-13
			V937.3z M1039.1,911.5h-13v46h35.1v-11.1h-22V911.5z M1092.9,939.6h21.8V929h-21.8v-6.6h23.1v-10.9H1080v46h36.8v-11h-24V939.6z
			 M1168,941.2c1.9-0.8,3.5-1.8,4.8-2.8c1.3-1,2.3-2.1,3-3.3c0.7-1.2,1.2-2.4,1.5-3.7c0.3-1.3,0.4-2.7,0.4-4.1c0-2.1-0.4-4-1.1-6
			c-0.8-1.9-1.9-3.6-3.4-5.1c-1.5-1.5-3.4-2.6-5.6-3.5c-2.2-0.9-4.8-1.3-7.8-1.3h-22.5v46h13v-14.9h4.5l10.7,14.9h14.3v-0.8
			L1168,941.2z M1163.8,931.3c-0.8,1.1-2,1.6-3.7,1.6h-9.6v-11.1h9.5c1.7,0,3,0.6,3.8,1.8c0.8,1.2,1.3,2.5,1.3,4
			C1164.9,929,1164.5,930.3,1163.8,931.3z"/>
	</g>
	<g>
		<g>
			<g>
				<path class="st1" d="M631.8,500.5c1.3,2.4,3.7,4.1,6.1,4.4c1.2,0.2,2.4,0.1,3.5-0.4c3.4-1.4,4.5-5.6,2.6-9.2l-13.3-25
					c-1.9-3.7-6.3-5.5-9.6-4c-3.4,1.5-4.5,5.6-2.6,9.2L631.8,500.5z"/>
				<path class="st1" d="M538.2,481.4v26.6c0,3.9,3.2,7.5,7,8.1c3.9,0.6,7-2.1,7-6v-26.6c0-3.9-3.2-7.5-7-8.1
					C541.4,474.8,538.2,477.5,538.2,481.4z"/>
				<path class="st1" d="M352.4,294.4c0,3.9,3.2,7.5,7,8.1l26.6,4c3.9,0.6,7-2.1,7-6c0-3.9-3.2-7.5-7-8.1l-26.6-4
					C355.5,287.8,352.4,290.5,352.4,294.4z"/>
				<path class="st1" d="M384.3,399.1c1.2,0.2,2.4,0,3.5-0.4l23-9.8c3.4-1.4,4.5-5.6,2.6-9.2c-1.9-3.7-6.3-5.4-9.6-4l-23,9.8
					c-3.4,1.4-4.5,5.6-2.6,9.2C379.5,397.1,381.9,398.7,384.3,399.1z"/>
				<path class="st1" d="M403.8,228.5c1.1,0.8,2.3,1.3,3.5,1.5c2.4,0.4,4.8-0.6,6.1-2.6c1.9-3.1,0.8-7.6-2.6-10l-23-16.7
					c-3.4-2.4-7.7-1.9-9.6,1.1c-1.9,3.1-0.8,7.6,2.6,10L403.8,228.5z"/>
				<path class="st1" d="M448.8,475.8c1.1,0.8,2.3,1.3,3.5,1.5c2.4,0.4,4.8-0.6,6.1-2.6l13.3-21c1.9-3.1,0.8-7.6-2.6-10
					c-3.4-2.4-7.7-1.9-9.6,1.1l-13.3,21C444.3,468.9,445.4,473.3,448.8,475.8z"/>
				<path class="st1" d="M709.5,434.4l-23-16.7c-3.4-2.5-7.7-1.9-9.6,1.1c-1.9,3.1-0.8,7.6,2.6,10l23,16.7c1.1,0.8,2.3,1.3,3.5,1.5
					c2.4,0.4,4.8-0.6,6.1-2.6C714,441.3,712.8,436.9,709.5,434.4z"/>
			</g>
			<g>
				<path class="st1" d="M512.2,119.4c-0.6-2.6-2.8-4.6-4.9-4.4c-3.3,0.3-6.6,0.5-9.9,0.8c-2.1,0.2-3.3,2.5-2.7,5.3
					c1,4.3,2.1,8.6,3.3,12.8c0.7,2.7,3,4.7,5.1,4.4c3.2-0.5,6.4-1,9.6-1.4c2-0.3,3.1-2.7,2.5-5.3
					C514.1,127.5,513.2,123.5,512.2,119.4z"/>
				<path class="st1" d="M541.8,116.8c-0.5-2.4-2.6-4.2-4.7-4c-3.3,0.2-6.6,0.5-10,0.7c-2.1,0.2-3.4,2.3-2.9,4.8
					c0.9,3.9,1.8,7.8,2.7,11.7c0.6,2.5,2.8,4.3,4.9,4c3.2-0.5,6.4-0.9,9.7-1.4c2.1-0.3,3.3-2.4,2.7-4.8
					C543.3,124.1,542.5,120.5,541.8,116.8z"/>
				<path class="st1" d="M571.6,114.2c-0.4-2.1-2.4-3.7-4.6-3.6c-3.3,0.2-6.7,0.5-10,0.7c-2.2,0.1-3.6,2.1-3.1,4.4
					c0.7,3.5,1.4,7,2.2,10.6c0.5,2.3,2.6,3.9,4.7,3.6c3.2-0.4,6.5-0.9,9.8-1.3c2.1-0.3,3.4-2.2,3-4.4
					C572.8,120.9,572.2,117.6,571.6,114.2z"/>
				<path class="st1" d="M522,155.5c-0.8-2.5-3.1-4.3-5.1-3.9c-3.1,0.6-6.2,1.3-9.3,1.9c-2,0.4-2.9,2.9-2,5.6
					c1.4,4.2,2.8,8.4,4.3,12.5c1,2.7,3.3,4.4,5.2,3.8c3-0.9,6-1.7,8.9-2.6c1.9-0.6,2.8-3,1.9-5.6C524.6,163.4,523.3,159.4,522,155.5
					z"/>
				<path class="st1" d="M550,149.5c-0.7-2.3-2.9-3.9-4.9-3.5c-3.1,0.6-6.3,1.2-9.4,1.8c-2,0.4-3.1,2.7-2.3,5.2
					c1.2,3.8,2.4,7.6,3.7,11.4c0.8,2.4,3.1,4,5,3.4c3-0.8,6.1-1.7,9.1-2.5c2-0.5,2.9-2.8,2.2-5.1C552.1,156.7,551,153.1,550,149.5z"
					/>
				<path class="st1" d="M534.5,190.5c-1-2.5-3.3-4-5.1-3.3c-2.9,1-5.8,2-8.7,3c-1.9,0.6-2.5,3.3-1.5,5.9c1.6,4,3.3,8.1,5.1,12.1
					c1.1,2.6,3.5,4,5.3,3.2c2.8-1.2,5.5-2.4,8.3-3.6c1.8-0.8,2.4-3.4,1.4-5.8C537.6,198.2,536,194.4,534.5,190.5z"/>
				<path class="st1" d="M560.7,181.3c-0.9-2.2-3.1-3.6-5-3c-3,1-5.9,1.9-8.9,2.9c-1.9,0.6-2.7,3.1-1.8,5.5c1.4,3.7,2.9,7.4,4.4,11
					c1,2.3,3.3,3.6,5.1,2.9c2.8-1.2,5.7-2.4,8.5-3.5c1.8-0.8,2.6-3.2,1.7-5.4C563.4,188.3,562,184.8,560.7,181.3z"/>
				<path class="st1" d="M587.3,172.4c-0.7-2-2.9-3.2-4.8-2.6c-3,0.9-6,1.9-9,2.8c-1.9,0.6-2.9,2.9-2.1,5c1.2,3.3,2.5,6.7,3.9,10
					c0.8,2.1,3.1,3.2,4.9,2.5c2.9-1.2,5.8-2.3,8.7-3.4c1.9-0.7,2.7-2.9,2-4.9C589.7,178.7,588.5,175.5,587.3,172.4z"/>
				<path class="st1" d="M596.2,112.8c-0.3-1.9-2.1-3.3-4-3.2c-2.9,0.2-5.9,0.4-8.8,0.6c-1.9,0.1-3.1,1.8-2.7,3.8
					c0.6,3.1,1.3,6.2,1.9,9.2c0.5,2,2.3,3.4,4.1,3.1c2.8-0.4,5.7-0.8,8.5-1.2c1.8-0.3,3-2,2.6-3.8
					C597.3,118.5,596.8,115.7,596.2,112.8z"/>
				<path class="st1" d="M602.4,138.6c-0.5-1.8-2.4-3-4.1-2.7c-2.8,0.5-5.6,1-8.4,1.6c-1.8,0.3-2.8,2.2-2.3,4.1c0.9,3,1.8,6,2.7,9
					c0.6,1.9,2.5,3.1,4.2,2.7c2.7-0.7,5.4-1.4,8.1-2.1c1.7-0.5,2.7-2.3,2.1-4.1C604,144.2,603.2,141.4,602.4,138.6z"/>
				<path class="st1" d="M610.4,163.7c-0.6-1.8-2.5-2.8-4.2-2.3c-2.6,0.8-5.3,1.7-7.9,2.5c-1.7,0.5-2.5,2.5-1.8,4.4
					c1.1,2.9,2.2,5.8,3.4,8.7c0.7,1.9,2.7,2.8,4.3,2.2c2.5-1,5.1-2,7.6-3c1.6-0.7,2.4-2.6,1.7-4.3
					C612.4,169.2,611.4,166.4,610.4,163.7z"/>
			</g>
			<g>
				<path class="st1" d="M763.4,174.5c0.7-1,2.4-1.7,3.7-1.6c2.1,0.1,4.2,0.2,6.2,0.3c1.3,0,1.8,0.9,1,1.8c-1.2,1.5-2.5,3.1-3.8,4.6
					c-0.8,1-2.6,1.8-3.9,1.8c-2-0.1-4-0.2-6-0.3c-1.3-0.1-1.7-1-0.9-2C761.1,177.6,762.3,176,763.4,174.5z"/>
				<path class="st1" d="M744.8,173.2c0.6-1,2.2-1.6,3.6-1.5c2.1,0.2,4.2,0.3,6.3,0.5c1.3,0.1,1.9,1,1.2,1.9
					c-1.1,1.5-2.2,3.1-3.3,4.6c-0.7,1-2.4,1.7-3.7,1.6c-2-0.2-4-0.3-6-0.5c-1.3-0.1-1.8-1-1.1-2
					C742.8,176.2,743.8,174.7,744.8,173.2z"/>
				<path class="st1" d="M726.1,171.1c0.5-0.9,2.1-1.6,3.4-1.4c2.1,0.3,4.2,0.5,6.3,0.7c1.4,0.2,2,1,1.4,2c-0.9,1.5-1.9,3-2.9,4.5
					c-0.7,1-2.2,1.7-3.5,1.5c-2-0.3-4-0.5-6.1-0.8c-1.3-0.2-1.9-1.1-1.3-2.1C724.4,174,725.2,172.5,726.1,171.1z"/>
				<path class="st1" d="M749.7,189.5c0.8-1,2.5-1.8,3.7-1.7c1.8,0.1,3.7,0.2,5.5,0.3c1.2,0.1,1.4,0.9,0.5,2c-1.4,1.6-2.8,3.3-4.3,5
					c-0.9,1.1-2.6,1.9-3.7,1.9c-1.7-0.1-3.5-0.3-5.2-0.4c-1.1-0.1-1.3-1.1-0.5-2.1C747.1,192.7,748.4,191.1,749.7,189.5z"/>
				<path class="st1" d="M716.4,185.4c0.6-0.9,2.1-1.6,3.3-1.4c1.9,0.3,3.8,0.6,5.7,0.9c1.2,0.2,1.7,1.1,1,2.1
					c-1.1,1.5-2.2,3.1-3.3,4.6c-0.7,1-2.3,1.7-3.4,1.5c-1.8-0.3-3.6-0.7-5.4-1c-1.2-0.2-1.6-1.2-0.9-2.2
					C714.4,188.3,715.5,186.8,716.4,185.4z"/>
				<path class="st1" d="M735,203.6c0.9-1.1,2.5-1.9,3.5-1.7c1.6,0.2,3.2,0.3,4.8,0.5c1,0.1,1.1,1.1,0.1,2.2c-1.5,1.7-3,3.5-4.6,5.3
					c-1,1.2-2.6,2-3.6,1.9c-1.5-0.2-3-0.4-4.5-0.7c-1-0.2-1-1.2-0.1-2.3C732.2,207,733.6,205.3,735,203.6z"/>
				<path class="st1" d="M720.5,201.4c0.8-1,2.3-1.7,3.4-1.5c1.6,0.3,3.3,0.5,4.9,0.8c1,0.1,1.2,1.1,0.4,2.2c-1.3,1.7-2.7,3.3-4.1,5
					c-0.9,1.1-2.4,1.8-3.4,1.6c-1.5-0.3-3.1-0.6-4.6-1c-1-0.2-1.1-1.2-0.3-2.3C718,204.6,719.3,203,720.5,201.4z"/>
				<path class="st1" d="M705.8,198.3c0.7-1,2.1-1.5,3.2-1.3c1.7,0.4,3.3,0.7,5,1.1c1.1,0.2,1.3,1.2,0.6,2.2
					c-1.2,1.6-2.4,3.1-3.6,4.7c-0.8,1-2.3,1.6-3.3,1.4c-1.6-0.4-3.2-0.8-4.7-1.2c-1-0.3-1.3-1.3-0.5-2.3
					C703.6,201.3,704.7,199.8,705.8,198.3z"/>
				<path class="st1" d="M710.2,169.1c0.5-0.9,1.8-1.5,3-1.3c1.8,0.2,3.7,0.4,5.5,0.6c1.2,0.1,1.7,1,1.2,1.9
					c-0.8,1.4-1.7,2.8-2.5,4.2c-0.6,0.9-2,1.6-3.1,1.4c-1.8-0.2-3.5-0.5-5.3-0.7c-1.1-0.2-1.6-1-1.1-1.9
					C708.6,171.8,709.4,170.4,710.2,169.1z"/>
				<path class="st1" d="M701.6,182.5c0.6-0.9,1.9-1.5,2.9-1.3c1.7,0.3,3.3,0.5,5,0.8c1.1,0.1,1.4,1,0.8,1.9
					c-0.9,1.4-1.9,2.9-2.9,4.3c-0.6,1-2,1.6-3,1.4c-1.6-0.3-3.1-0.6-4.7-0.9c-1-0.2-1.4-1.1-0.8-2
					C699.8,185.3,700.7,183.9,701.6,182.5z"/>
				<path class="st1" d="M692.2,194.7c0.6-0.9,1.9-1.5,2.8-1.2c1.5,0.3,2.9,0.7,4.4,1c0.9,0.2,1.2,1.1,0.5,2c-1,1.5-2.1,2.9-3.2,4.4
					c-0.7,1-2,1.6-2.9,1.3c-1.4-0.4-2.8-0.7-4.1-1.1c-0.9-0.3-1.1-1.2-0.4-2.1C690.3,197.5,691.2,196.1,692.2,194.7z"/>
			</g>
			<g>
				<path class="st1" d="M804.4,302c1.9,1.2,5,0.9,6.8-0.7c2.9-2.6,5.7-5.1,8.6-7.7c1.9-1.7,1.8-3.9-0.1-4.9
					c-3.1-1.6-6.2-3.1-9.5-4.5c-2.1-1-5.4-0.5-7.2,1c-2.9,2.3-5.7,4.5-8.5,6.8c-1.8,1.5-1.5,3.5,0.6,4.7
					C798.2,298.3,801.4,300.1,804.4,302z"/>
				<path class="st1" d="M779.3,323.6c1.9,1.5,4.9,1.5,6.7-0.1c2.8-2.4,5.6-4.9,8.4-7.3c1.8-1.6,1.8-4-0.2-5.3c-3-2.1-6.2-4.1-9.4-6
					c-2.1-1.3-5.3-1.1-7.1,0.3c-2.8,2.2-5.5,4.4-8.3,6.6c-1.8,1.4-1.5,3.7,0.6,5.1C773.1,319,776.2,321.2,779.3,323.6z"/>
				<path class="st1" d="M774,286.4c2.4,1,5.8,0.8,7.6-0.5c2.8-2,5.6-4.1,8.4-6.2c1.8-1.3,1.4-3.1-1.1-4c-3.9-1.4-7.8-2.7-11.9-4
					c-2.7-0.9-6.3-0.6-8.1,0.5c-2.7,1.8-5.5,3.6-8.2,5.4c-1.7,1.2-1,2.9,1.6,3.9C766.3,283.2,770.2,284.8,774,286.4z"/>
				<path class="st1" d="M749.6,304.3c2.3,1.3,5.6,1.3,7.3,0c2.7-2,5.4-4.1,8.1-6.1c1.8-1.3,1.3-3.3-1.1-4.5
					c-3.7-1.8-7.6-3.6-11.5-5.3c-2.5-1.1-6.1-1.1-7.8,0.1c-2.6,1.8-5.2,3.6-7.9,5.5c-1.7,1.2-0.9,3.1,1.5,4.4
					C742.2,300.2,746,302.2,749.6,304.3z"/>
				<path class="st1" d="M726.2,322.1c2.2,1.5,5.3,1.6,7,0.3c2.6-2,5.2-4.1,7.8-6.1c1.7-1.3,1.3-3.5-1-4.9c-3.6-2.2-7.2-4.3-11-6.4
					c-2.5-1.4-5.8-1.5-7.4-0.3c-2.5,1.9-5,3.7-7.5,5.6c-1.6,1.2-0.9,3.4,1.4,4.8C719.2,317.5,722.7,319.8,726.2,322.1z"/>
				<path class="st1" d="M736.7,272.1c2.9,1,6.6,1,8.3,0c2.6-1.6,5.3-3.2,8-4.9c1.7-1,0.7-2.6-2.3-3.5c-4.7-1.4-9.6-2.8-14.5-4.2
					c-3.2-1-4.3,0.7-5.9,1.6c-2.5,1.4-5,2.8-7.5,4.2c-1.6,0.9-0.3,2.5,2.8,3.6C730.3,270.6,732.1,270.5,736.7,272.1z"/>
				<path class="st1" d="M714,286.7c2.8,1.2,6.3,1.4,7.9,0.3c2.5-1.7,5-3.4,7.6-5.1c1.6-1.1,0.7-2.9-2.2-4
					c-4.5-1.8-6.1-1.8-10.9-3.6c-3.1-1.2-6.9-1.3-8.4-0.4c-2.4,1.5-4.8,3-7.1,4.5c-1.5,1-0.3,2.8,2.6,4.1
					C708.2,284.5,709.7,284.7,714,286.7z"/>
				<path class="st1" d="M692.6,302.1c2.6,1.4,5.9,1.6,7.4,0.4c2.4-1.8,4.8-3.6,7.2-5.3c1.6-1.1,0.7-3.1-2-4.4
					c-4.2-2.1-5.6-2.4-10.1-4.4c-2.9-1.3-6.4-1.6-7.9-0.5c-2.2,1.6-4.5,3.3-6.7,4.9c-1.4,1.1-0.3,3.1,2.5,4.5
					C687.3,299.5,688.5,299.9,692.6,302.1z"/>
				<path class="st1" d="M733.1,360.6c1.8,1.7,4.6,2.1,6.3,0.9c2.6-1.9,5.3-3.7,8-5.6c1.7-1.2,1.6-3.5-0.2-5.1
					c-2.9-2.5-5.8-5-8.9-7.3c-2-1.5-5-1.9-6.6-0.7c-2.6,1.7-5.2,3.5-7.7,5.2c-1.7,1.1-1.4,3.3,0.5,4.9
					C727.4,355.4,730.3,358,733.1,360.6z"/>
				<path class="st1" d="M703.4,336.8c2.1,1.5,5.1,1.9,6.7,0.8c2.5-1.7,5-3.3,7.5-5c1.6-1.1,1.2-3.1-1-4.6
					c-3.4-2.2-6.9-4.5-10.5-6.6c-2.3-1.4-5.5-1.8-7-0.8c-2.4,1.5-4.8,3.1-7.1,4.6c-1.5,1-0.9,3,1.3,4.5
					C696.7,332.1,700.1,334.4,703.4,336.8z"/>
				<path class="st1" d="M671.5,316.3c2.4,1.4,5.6,1.8,7.1,0.9c2.3-1.5,4.5-3,6.8-4.4c1.5-0.9,0.7-2.8-1.9-4.2
					c-4-2.1-5.2-2.6-9.3-4.7c-2.7-1.4-6.1-1.8-7.4-0.9c-2.1,1.4-4.2,2.7-6.3,4.2c-1.3,0.9-0.3,2.8,2.3,4.2
					C666.7,313.6,667.7,314,671.5,316.3z"/>
			</g>
		</g>
		<g>
			<path class="st0" d="M773.9,425.3c-3.9,3.6-8.4,7.6-13.9,10.3c-3,1.5-6.4,2.3-9.7,2.3c-1.9,0-3.9-0.3-5.8-0.8L744,437
				c-1.8-0.5-3.6-1-5.5-1.5c-35.7,65.1-107.4,105-190.1,97c-118.4-11.5-214.3-116.7-214.3-235c0-70.4,34-129.5,86.4-163.5
				c-1.7-9.3-2.6-18.5-2.8-27.3c-57.7,39.3-94.9,105.8-94.9,184.5c0,135.4,109.8,255.8,245.2,269c114.1,11,209.9-57.7,237.3-160.6
				c-10.5,8.5-20.6,16.8-29.4,24.1C775.2,424.2,774.6,424.8,773.9,425.3z"/>
			<path class="st0" d="M578.3,143.7c-0.6-2.1-2.7-3.5-4.7-3.1c-3.2,0.6-6.4,1.2-9.6,1.8c-2,0.4-3.2,2.5-2.6,4.7
				c1,3.5,2,6.9,3.1,10.3c0.7,2.2,2.9,3.6,4.9,3c3.1-0.8,6.2-1.6,9.2-2.4c2-0.5,3.1-2.6,2.5-4.7
				C580.1,150.2,579.1,146.9,578.3,143.7z"/>
			<path class="st0" d="M733.2,187.8c0.7-1,2.3-1.7,3.5-1.5c1.9,0.2,3.7,0.4,5.6,0.6c1.2,0.1,1.5,1,0.8,2c-1.2,1.6-2.5,3.2-3.8,4.8
				c-0.8,1.1-2.4,1.8-3.6,1.7c-1.8-0.2-3.5-0.5-5.3-0.7c-1.1-0.2-1.4-1.1-0.7-2.1C730.9,191,732.1,189.4,733.2,187.8z"/>
			<path class="st0" d="M754.8,344.1c1.9,1.7,4.8,1.9,6.5,0.4c2.7-2.3,5.4-4.6,8.1-6.9c1.8-1.5,1.7-4-0.2-5.6c-3-2.4-6-4.9-9.2-7.2
				c-2-1.5-5.1-1.6-6.9-0.2c-2.7,2.1-5.3,4.3-8,6.4c-1.7,1.4-1.4,3.8,0.6,5.4C748.9,338.9,751.9,341.5,754.8,344.1z"/>
			<path class="st0" d="M880.8,291c-8.4-8-59.1-57.5-143.9-58c34.8-20.1,72.6-62.1,93.4-105.6c0.1-0.1,0.2-0.2,0.3-0.3
				c-0.1,0-0.1,0-0.2,0.1c0-0.1,0.1-0.1,0.1-0.2l-0.5,0.3c-41.9,13.1-97.8,1.6-139.6-11.8c-13.1,37.8-27.7,62.1-43.1,80.3
				c2.7-59.4-25-99.2-16.2-148.6c-13.8,4.8-31.7,9.5-51.9,12.9c1.1,2.4,1.9,5,2.4,7.6c2.7,14.9-16.2,18-16,1.8
				c0-2.9-0.3-5.3-0.9-7.2c-15.1,1.9-31.1,2.9-47.3,2.7c0.7,2.2,1.3,4.5,1.5,6.8c1.7,15-17.4,16.9-16.1,0.7c0.3-3.4,0-6-0.7-8.1
				c-19.4-1.3-38.9-4.7-57.3-11c0,0-13.5,50.5,2.2,95.6c5.5,15.9,13,28.1,20.2,40.3c7.3,12.1,14.6,23.9,21.4,36.7
				c9.2,17.2,25.1,41.3,28.5,92.2c-3.9,4.8-6.3,10.9-6.3,17.9c0,16.9,13.7,31.9,30.5,33.5c14.5,1.4,26.6-7.5,29.7-20.8
				c7.6-3.9,15.6-5.9,23.7-6.7c2.7-0.1,5.4-0.3,8.1-0.3c2.7,0.1,5.4,0.1,8.1,0.3l8.1,0.8l8.3,1.3c10.6,2,21.1,6,31.2,12.3
				c10.1,6.2,19.7,14.8,29.6,23.5c9.9,8.7,20.1,17.3,30.8,23.8c10.1,6.3,20.9,9.2,31.5,12.1c3.4-1.7,7.4-5.7,11.3-9.1
				c0,0,104-85.2,115.3-93.1c6.1-4.2,9.2-7.9,8.8-13.3C885.7,297.8,884,294.1,880.8,291z M480.6,141.9c-4.2-23.6-4.8-36.7-1.6-49.5
				c23.2,5.9,97.1,2.6,126.3-12.1c-0.3,40.8,30.5,72.7,26.2,132.3c-28.9,27.5-59.5,42.9-86.9,91.9
				C536.2,216.8,492.1,206,480.6,141.9z M749.4,378.8c-51.1-14.1-79.1-75.1-181.8-52.7c-2-3.5-4.5-6.6-7.5-9.2
				c31.7-59.4,84-78.4,120.6-118.6c20.2-30.8,21.4-30.9,29.7-47.4c26.7,6.7,70.9,9.5,90.9,2.9c-18.3,35.6-70.7,72.3-82.2,80
				c-14.7,1.1-30.2,3.6-46.6,8.1c85.7-5.8,142.6,25.2,173.5,53.7C829.9,311.2,772.2,359.6,749.4,378.8z"/>
			<g>
				<path class="st0" d="M551,55.7c20.9-21.5,34-6.6,36.7,8.3c2.7,14.9-16.2,18-16,1.8C571.9,49.6,561.4,49.5,551,55.7z"/>
				<path class="st0" d="M490.7,59.3c22.2-20.1,34.4-4.4,36.1,10.7c1.7,15-17.3,16.9-16.1,0.7C512,54.5,501.5,53.8,490.7,59.3z"/>
			</g>
		</g>
	</g>
</g>
</svg>
