<?xml version="1.0" encoding="utf-8"?>
<!-- Generator: Adobe Illustrator 19.0.0, SVG Export Plug-In . SVG Version: 6.00 Build 0)  -->
<svg version="1.1" id="图层_1" xmlns="http://www.w3.org/2000/svg" xmlns:xlink="http://www.w3.org/1999/xlink" x="0px" y="0px"
	 viewBox="0 0 595.3 841.9" style="enable-background:new 0 0 595.3 841.9;" xml:space="preserve">
<style type="text/css">
	.st0{fill:#7494AD;}
</style>
<g>
	<g>
		<g>
			<path class="st0" d="M177,467.5c5.9-10.5,19-14.1,29.7-7.8c10.5,6.3,13.7,19.4,8,29.7l-92.7,160.8c-6.3,10.5-19.4,14.1-30.1,7.8
				c-10.1-5.9-14.1-19-7.8-29.7L177,467.5z M108.1,495.8c-15.8-16.1-28.3-34.8-37.3-55.4c-8.4-20.2-12.8-42.3-12.8-65.5
				s4.2-45.3,12.8-65.5l0.6-1.2C80,288.1,92.6,269.6,108,254c15.8-15.2,34.8-28,55.7-36.6l1.2-0.6c19.6-7.8,41.5-12.5,64.3-12.5
				c17,0,33.3,2.7,49.1,7.2c15.8,4.8,31,12,44.4,20.9c13.7,8.9,25.9,19.6,36,31.8h0.3H359c10.5,12.2,19,25.9,25.7,40.8
				c4.4,8.9,13.4,13.7,22.6,12.5l4.4-0.3l4.2-0.6h4.2l3.3-0.3v0.3c15.4,0,30.4,3,43.8,8.6c14.1,5.7,26.5,14.3,37.3,24.7
				c10.7,10.7,19,23.6,25,37.3c5.3,13.4,8.6,28.3,8.6,43.8c0,15.4-3.3,30.4-8.6,43.8c-5.9,14.1-14.3,26.5-25,37.3
				c-8.9,8.9-19,16.4-30.4,22.1h-0.3c-10.7,5.3-23,8.9-35.4,10.7c-12.2,1.5-20.6,12.2-18.8,24.2c1.5,12,12.5,20.2,24.2,18.8
				c17.5-2.4,34.3-7.4,49.7-14.9v-0.3c15.4-7.8,30.1-17.5,42-30.1c14.6-14.6,26.2-31.6,34.3-51c7.8-18.8,12.2-39.4,12.2-60.5
				c0-21.1-4.4-41.7-12.2-60.2c-8-19.4-19.6-36.9-34.3-51.6C521,305,503.4,293.1,484,285.1c-18.8-7.8-39-12-60.2-12h-0.6l-3.8,0.3
				h-1.2c-7.2-13.4-15.8-25.9-25.7-37.5v0.3c-13.4-15.8-28.3-29.1-45.3-40.2c-17.3-11.3-36-20.6-56.3-26.2c-20-5.7-40.8-8.9-62-8.9
				c-28.6,0-56,5.7-81.1,16.1l-0.9,0.3c-26.2,10.7-50.1,26.8-69.7,46.5c-19.4,19-34.8,42.6-46.2,68.5l-0.6,0.9
				c-9.9,25.3-15.8,53.3-15.8,82.2s5.9,56.3,16.1,81.9V457c10.7,26.5,26.8,50.1,46.5,69.7c8.4,8.6,22.3,8.6,30.7,0
				C117.1,518.1,117.1,504.2,108.1,495.8L108.1,495.8z M274.7,467.5l-93.2,160.8c-5.9,10.5-2.4,23.8,8,29.7
				c10.5,6.3,23.8,2.7,29.7-7.8l92.7-160.8c6.3-10.5,2.4-23.6-7.8-29.7C293.7,453.8,280.7,457,274.7,467.5L274.7,467.5z
				 M372.1,467.5c6.3-10.5,19.4-14.1,29.7-7.8c10.5,6.3,14.1,19.4,8,29.7l-92.9,160.8c-5.9,10.5-19.4,14.1-29.7,7.8
				c-10.5-5.9-13.7-19-7.8-29.7L372.1,467.5z"/>
		</g>
	</g>
</g>
</svg>
