<?xml version="1.0" encoding="utf-8"?>
<!-- Generator: Adobe Illustrator 19.0.0, SVG Export Plug-In . SVG Version: 6.00 Build 0)  -->
<svg version="1.1" id="图层_1" xmlns="http://www.w3.org/2000/svg" xmlns:xlink="http://www.w3.org/1999/xlink" x="0px" y="0px"
	 viewBox="60 62.4 716.5 716.5" style="enable-background:new 60 62.4 716.5 716.5;" xml:space="preserve">
<style type="text/css">
	.st0{fill:#999999;}
</style>
<g>
	<path class="st0" d="M721.2,463.3v233.5c0,12.9-10.5,23.4-23.4,23.4H136.2c-12.9,0-23.4-10.5-23.4-23.4V463.3H66v233.5
		c0,38.7,31.5,70.2,70.2,70.2h561.6c38.7,0,70.2-31.5,70.2-70.2V463.3H721.2z M721.2,463.3"/>
	<path class="st0" d="M288.9,284.6l104.7-104.7v407.2c0,12.9,10.5,23.4,23.4,23.4c12.9,0,23.4-10.5,23.4-23.4V179.9l104.7,104.7
		c4.6,4.6,10.6,6.9,16.5,6.9c6,0,12-2.3,16.5-6.9c9.1-9.1,9.1-24,0-33.1L433.8,107.1c-1.4-1.5-3.1-2.8-4.9-3.8l-0.1,0
		c-0.3-0.2-0.6-0.3-0.9-0.5l-0.1-0.1c-0.3-0.2-0.6-0.3-0.9-0.4l-0.1-0.1c-0.3-0.1-0.6-0.3-0.9-0.4l-0.1-0.1
		c-0.3-0.1-0.6-0.2-0.9-0.3l-0.1-0.1c-0.3-0.1-0.6-0.2-0.9-0.3l-0.1,0c-0.3-0.1-0.6-0.2-0.9-0.3c-0.1,0-0.1,0-0.2,0
		c-0.3-0.1-0.6-0.1-0.9-0.2c-0.1,0-0.2,0-0.2,0c-0.3-0.1-0.6-0.1-0.9-0.1c-0.1,0-0.2,0-0.3,0c-0.3,0-0.5-0.1-0.8-0.1
		c-0.2,0-0.4,0-0.5,0c-0.2,0-0.4,0-0.6,0c-0.8,0-1.5,0-2.3,0c-0.2,0-0.4,0-0.6,0c-0.2,0-0.4,0-0.5,0c-0.3,0-0.5,0.1-0.8,0.1
		c-0.1,0-0.2,0-0.3,0c-0.3,0-0.6,0.1-0.9,0.1c-0.1,0-0.2,0-0.2,0c-0.3,0.1-0.6,0.1-0.9,0.2l-0.2,0c-0.3,0.1-0.6,0.2-0.9,0.3
		c-0.1,0-0.1,0-0.2,0c-0.3,0.1-0.6,0.2-0.9,0.3l-0.1,0.1c-0.3,0.1-0.6,0.2-0.9,0.3c0,0-0.1,0-0.1,0.1c-0.3,0.1-0.6,0.3-0.9,0.4
		l-0.1,0.1c-0.3,0.1-0.6,0.3-0.9,0.4l-0.1,0.1c-0.3,0.2-0.6,0.3-0.9,0.5l-0.1,0c-1.8,1.1-3.4,2.4-4.9,3.8L255.8,251.5
		c-9.1,9.1-9.1,24,0,33.1C264.9,293.7,279.8,293.7,288.9,284.6L288.9,284.6z M288.9,284.6"/>
</g>
</svg>
