<?xml version="1.0" encoding="utf-8"?>
<!-- Generator: Adobe Illustrator 19.0.0, SVG Export Plug-In . SVG Version: 6.00 Build 0)  -->
<svg version="1.1" id="图层_1" xmlns="http://www.w3.org/2000/svg" xmlns:xlink="http://www.w3.org/1999/xlink" x="0px" y="0px"
	 viewBox="60 62.4 716.5 716.5" style="enable-background:new 60 62.4 716.5 716.5;" xml:space="preserve">
<style type="text/css">
	.st0{fill:#FFFFFF;}
</style>
<g>
	<path class="st0" d="M224.2,555.4C140.8,555.4,73,487.6,73,404.2c0-83.4,67.8-151.2,151.2-151.2s151.2,67.8,151.2,151.2
		C375.4,487.6,307.6,555.4,224.2,555.4z M224.2,299.4c-57.8,0-104.8,47-104.8,104.8c0,57.8,47,104.8,104.8,104.8
		s104.8-47,104.8-104.8C328.9,346.4,281.9,299.4,224.2,299.4z"/>
	<path class="st0" d="M571.3,287.2c-55,0-99.7-44.7-99.7-99.7s44.7-99.7,99.7-99.7s99.7,44.7,99.7,99.7S626.3,287.2,571.3,287.2z
		 M571.3,134.4c-29.3,0-53.2,23.9-53.2,53.2s23.9,53.2,53.2,53.2c29.3,0,53.2-23.9,53.2-53.2S600.7,134.4,571.3,134.4z"/>
	<path class="st0" d="M659.4,511.5c-55,0-99.7-44.7-99.7-99.7s44.7-99.7,99.7-99.7s99.7,44.7,99.7,99.7S714.3,511.5,659.4,511.5z
		 M659.4,358.6c-29.3,0-53.2,23.9-53.2,53.2c0,29.3,23.9,53.2,53.2,53.2c29.3,0,53.2-23.9,53.2-53.2
		C712.6,382.5,688.7,358.6,659.4,358.6z"/>
	
		<rect x="408.7" y="166.6" transform="matrix(0.5865 0.8099 -0.8099 0.5865 399.9357 -236.855)" class="st0" width="46.5" height="213.4"/>
	<path class="st0" d="M571.3,740.5c-55,0-99.7-44.7-99.7-99.7s44.7-99.7,99.7-99.7s99.7,44.7,99.7,99.7S626.3,740.5,571.3,740.5z
		 M571.3,587.6c-29.3,0-53.2,23.9-53.2,53.2c0,29.3,23.9,53.2,53.2,53.2c29.3,0,53.2-23.9,53.2-53.2
		C624.5,611.5,600.7,587.6,571.3,587.6z"/>
	
		<rect x="325.2" y="531.9" transform="matrix(0.8099 0.5865 -0.5865 0.8099 407.6901 -147.842)" class="st0" width="213.4" height="46.5"/>
	<rect x="363.2" y="385.7" class="st0" width="226.3" height="46.5"/>
</g>
</svg>
