<?xml version="1.0" encoding="utf-8"?>
<!-- Generator: Adobe Illustrator 19.0.0, SVG Export Plug-In . SVG Version: 6.00 Build 0)  -->
<svg version="1.1" id="图层_1" xmlns="http://www.w3.org/2000/svg" xmlns:xlink="http://www.w3.org/1999/xlink" x="0px" y="0px"
	 viewBox="60 62.4 716.5 716.5" style="enable-background:new 60 62.4 716.5 716.5;" xml:space="preserve">
<style type="text/css">
	.st0{fill:#FFFFFF;}
</style>
<g>
	<path class="st0" d="M427.5,530.9c-55.3,0-100.4-45.1-100.4-100.4c0-55.3,45.1-100.4,100.4-100.4c41,0,75.8,24.6,92.2,61.4
		L482.8,408c-8.2-22.5-30.7-34.8-53.3-34.8c-32.8,0-59.4,26.6-59.4,59.4c0,32.8,26.6,59.4,59.4,59.4c10.2,0,20.5-2,30.7-8.2
		l20.5,34.8C464.3,526.8,445.9,530.9,427.5,530.9L427.5,530.9z M427.5,530.9"/>
	<path class="st0" d="M493,698.8l-8.2-12.3c-12.3-18.4-32.8-28.7-55.3-28.7c-22.5,0-43,10.2-55.3,28.7l-8.2,12.3l-16.4-4.1
		c-41-12.3-79.9-34.8-110.6-63.5L228.8,621l6.1-14.3c10.2-20.5,8.2-43-2-63.5c-10.2-18.4-30.7-30.7-53.3-32.8h-16.4l-4.1-14.3
		c-4.1-20.5-8.2-43-8.2-63.5c0-20.5,2-43,8.2-63.5l4.1-14.3l14.3-2.1c22.5-2,41-14.3,53.2-32.8c10.2-18.4,12.3-43,2.1-63.5
		l-6.1-14.3l10.2-10.2c30.7-30.7,69.6-51.2,110.6-63.5l14.3-4.1l8.2,12.3c12.3,18.4,32.8,28.7,55.3,28.7c22.5,0,43-10.2,55.3-28.7
		l8.2-12.3l14.3,4.1c41,12.3,79.9,34.8,110.6,63.5l10.2,10.2l-6.1,14.3c-10.2,20.5-8.2,43,2,63.5c10.2,18.4,30.7,30.7,53.2,32.8
		l14.3,2.1l4.1,14.3c4.1,20.5,8.2,43,8.2,63.5c0,20.5-2,43-8.2,63.5v14.3l-14.3,2c-22.5,2-41,14.3-53.2,32.8
		c-10.2,18.4-12.3,43-2.1,63.5l6.1,14.3l-10.2,10.2c-30.7,30.7-69.6,51.2-110.6,63.5L493,698.8z M278,610.8
		c20.5,18.4,45.1,32.8,71.7,41c20.5-22.5,49.2-34.8,79.9-34.8c30.7,0,59.4,12.3,79.9,34.8c26.6-10.2,51.2-22.5,71.7-41
		c-8.2-28.7-6.1-59.4,10.2-86c14.3-26.6,41-45.1,69.6-51.2c2-14.3,4.1-26.6,4.1-41c0-14.3-2-28.7-4.1-41
		c-28.7-6.1-55.3-24.6-69.6-51.2s-18.4-57.3-10.2-86c-20.5-18.4-45.1-32.8-71.7-41c-20.5,22.5-49.2,34.8-79.9,34.8
		c-30.7,0-59.4-12.3-79.9-34.8c-26.6,10.2-51.2,22.5-71.7,41c8.2,28.7,6.1,59.4-10.2,86c-14.3,26.6-41,45.1-69.6,51.2
		c-2.1,14.3-4.1,26.6-4.1,41c0,14.3,2,28.7,4.1,41c28.7,6.1,55.3,24.6,69.6,51.2C282.1,551.4,286.2,582.1,278,610.8L278,610.8z
		 M278,610.8"/>
</g>
</svg>
